<svg version="1.1" xmlns="http://www.w3.org/2000/svg" viewBox="0 0 905.4755985847951 799.129262077905" width="905.4755985847951" height="799.129262077905" class="excalidraw-svg"><!-- svg-source:excalidraw --><metadata></metadata><defs><style class="style-fonts">
      </style></defs><rect x="0" y="0" width="905.4755985847951" height="799.129262077905" fill="#ffffff"></rect><g transform="translate(113 300.263157894737) rotate(0 40.5 144)" stroke="none"><path fill="#1e1e1e" d="M 0,4.72 Q 0,4.72 -2.3,4.80 -4.6,4.88 -8.00,5.53 -11.41,6.17 -17.19,7.64 -22.97,9.12 -25.49,10.28 -28.02,11.44 -29.91,12.90 -31.80,14.36 -34.06,16.33 -36.33,18.30 -38.82,20.92 -41.32,23.54 -44.26,27.44 -47.20,31.35 -50.09,35.02 -52.98,38.69 -54.78,40.93 -56.58,43.17 -58.20,45.04 -59.83,46.91 -63.14,49.61 -66.44,52.32 -69.05,55.58 -71.67,58.84 -73.29,61.49 -74.92,64.15 -77.51,68.30 -80.10,72.45 -81.68,75.62 -83.25,78.80 -85.52,83.01 -87.78,87.22 -89.19,90.43 -90.60,93.65 -91.69,96.27 -92.77,98.88 -93.36,101.22 -93.95,103.56 -94.98,105.50 -96.01,107.44 -96.84,110.50 -97.67,113.56 -97.98,117.00 -98.28,120.44 -98.59,126.62 -98.91,132.80 -98.95,136.31 -98.99,139.83 -98.92,142.75 -98.84,145.68 -98.72,148.07 -98.61,150.46 -98.58,153.49 -98.55,156.52 -98.32,159.46 -98.09,162.40 -97.06,164.91 -96.02,167.41 -94.65,169.41 -93.27,171.41 -92.27,173.32 -91.26,175.24 -89.63,176.74 -87.99,178.24 -85.06,177.86 -82.12,177.48 -80.46,175.62 -78.79,173.77 -77.01,170.37 -75.23,166.97 -74.10,165.16 -72.98,163.34 -71.97,159.62 -70.97,155.90 -69.74,152.05 -68.51,148.21 -68.44,145.92 -68.37,143.64 -68.36,141.40 -68.36,139.17 -67.26,134.03 -66.15,128.90 -64.83,126.95 -63.50,125.01 -61.21,121.22 -58.91,117.43 -56.50,114.69 -54.09,111.95 -51.12,109.92 -48.15,107.90 -45.47,107.25 -42.78,106.60 -40.28,106.43 -37.78,106.26 -34.26,108.00 -30.75,109.73 -29.20,113.72 -27.65,117.71 -27.03,120.79 -26.42,123.88 -26.28,126.52 -26.14,129.16 -26.11,131.72 -26.08,134.27 -26.10,137.36 -26.11,140.44 -26.17,142.62 -26.23,144.79 -26.62,149.14 -27.00,153.50 -27.97,156.92 -28.93,160.34 -30.11,164.06 -31.30,167.78 -33.26,172.13 -35.22,176.48 -35.78,179.10 -36.34,181.72 -36.90,184.61 -37.46,187.50 -37.94,189.58 -38.42,191.65 -38.50,194.74 -38.58,197.82 -39.40,201.69 -40.22,205.56 -41.68,210.07 -43.13,214.58 -43.48,216.69 -43.82,218.79 -44.11,222.21 -44.40,225.62 -44.55,229.18 -44.70,232.74 -44.62,235.12 -44.53,237.51 -44.48,240.24 -44.43,242.96 -44.25,247.28 -44.07,251.60 -44.08,254.59 -44.10,257.58 -43.02,261.38 -41.94,265.18 -40.74,268.18 -39.54,271.18 -37.27,274.15 -34.99,277.11 -32.63,277.86 -30.27,278.60 -27.41,278.85 -24.55,279.11 -20.53,279.24 -16.52,279.37 -13.49,279.47 -10.47,279.57 -7.47,279.02 -4.46,278.46 -3.07,276.25 -1.68,274.03 -0.75,271.83 0.16,269.63 1.02,264.82 1.89,260.00 2.77,257.08 3.65,254.16 3.92,251.83 4.18,249.51 4.31,247.05 4.45,244.59 4.85,240.43 5.25,236.26 5.08,232.69 4.91,229.13 4.77,225.42 4.63,221.71 5.27,219.20 5.92,216.68 7.69,212.83 9.46,208.98 12.14,207.60 14.82,206.22 17.45,205.67 20.09,205.12 22.95,204.99 25.82,204.85 30.48,208.63 35.13,212.41 36.61,214.65 38.10,216.89 40.75,220.00 43.40,223.11 44.23,225.46 45.06,227.82 46.42,229.82 47.77,231.83 48.83,234.04 49.88,236.24 50.20,239.05 50.51,241.86 50.39,244.78 50.26,247.70 51.71,250.19 53.16,252.67 54.45,255.40 55.73,258.12 56.76,261.44 57.78,264.75 58.52,266.88 59.26,269.00 61.39,271.47 63.53,273.93 65.56,275.05 67.60,276.16 69.69,277.28 71.77,278.39 74.24,279.85 76.71,281.32 78.96,281.29 81.22,281.25 84.51,281.22 87.79,281.19 88.20,277.09 88.60,272.98 88.79,270.66 88.98,268.34 89.44,264.59 89.89,260.84 90.01,257.19 90.13,253.54 90.90,250.71 91.66,247.88 92.27,245.41 92.87,242.94 93.90,240.47 94.94,238.01 95.63,232.12 96.31,226.23 96.26,222.96 96.20,219.69 96.11,216.62 96.03,213.55 95.97,210.24 95.92,206.94 95.79,204.06 95.67,201.17 95.64,197.96 95.62,194.75 95.30,192.56 94.99,190.38 94.24,186.77 93.48,183.16 92.54,180.53 91.60,177.90 90.30,175.54 89.00,173.17 88.13,170.12 87.25,167.08 86.89,164.52 86.53,161.95 86.38,159.67 86.23,157.39 86.38,153.80 86.53,150.20 86.38,147.39 86.23,144.58 86.81,139.86 87.39,135.14 88.88,131.73 90.38,128.32 93.13,126.63 95.88,124.94 98.61,124.73 101.35,124.52 104.82,124.50 108.29,124.49 110.77,124.61 113.26,124.73 116.51,126.33 119.76,127.93 122.52,130.60 125.27,133.28 126.94,135.15 128.61,137.03 129.75,140.16 130.90,143.29 132.35,145.44 133.81,147.59 135.06,150.77 136.31,153.95 137.44,156.40 138.57,158.86 140.41,163.05 142.25,167.25 143.34,169.45 144.43,171.64 146.64,174.50 148.86,177.37 152.69,179.33 156.51,181.29 159.16,181.67 161.81,182.04 165.57,180.25 169.32,178.46 171.14,176.38 172.95,174.30 174.94,171.41 176.93,168.51 177.54,166.39 178.14,164.28 178.37,160.90 178.60,157.52 178.68,154.81 178.76,152.10 178.64,148.72 178.52,145.35 178.35,141.49 178.18,137.64 178.09,134.46 178.00,131.29 177.14,128.65 176.27,126.01 173.99,120.77 171.70,115.54 170.01,110.52 168.33,105.49 167.07,102.46 165.80,99.43 160.93,92.08 156.06,84.74 154.19,82.08 152.33,79.42 149.85,76.99 147.38,74.57 145.60,72.41 143.82,70.25 142.88,66.62 141.94,62.99 140.78,60.84 139.63,58.69 137.85,56.34 136.07,53.98 134.25,51.28 132.44,48.57 130.71,46.65 128.98,44.74 126.46,43.37 123.94,42.00 121.21,40.88 118.47,39.76 116.43,38.86 114.39,37.95 111.66,36.56 108.93,35.16 106.99,34.13 105.06,33.11 101.87,31.30 98.68,29.50 96.08,28.18 93.47,26.85 91.07,26.13 88.68,25.41 85.50,24.01 82.33,22.62 79.05,21.36 75.77,20.10 71.59,19.23 67.41,18.35 64.54,17.34 61.67,16.32 58.91,15.73 56.16,15.14 53.17,14.30 50.19,13.45 47.44,12.61 44.70,11.77 42.09,10.96 39.48,10.14 37.21,10.33 34.94,10.51 31.09,10.51 27.24,10.51 24.64,10.55 22.04,10.59 17.22,10.31 12.40,10.03 9.98,10.00 7.57,9.97 5.41,10.06 3.25,10.15 0.62,10.22 -2.00,10.28 -3.00,10.12 -4.00,9.96 -4.90,9.48 -5.80,9.00 -6.50,8.26 -7.20,7.52 -7.63,6.60 -8.06,5.68 -8.17,4.67 -8.28,3.65 -8.06,2.66 -7.84,1.67 -7.31,0.79 -6.79,-0.07 -6.01,-0.73 -5.24,-1.38 -4.29,-1.76 -3.35,-2.14 -2.33,-2.19 -1.31,-2.25 -0.33,-1.98 0.64,-1.70 1.48,-1.13 2.32,-0.56 2.94,0.24 3.55,1.05 3.88,2.01 4.20,2.98 4.20,4.00 4.20,5.01 3.88,5.98 3.55,6.94 2.94,7.75 2.32,8.56 1.48,9.13 0.64,9.70 -0.34,9.98 -1.32,10.25 -2.33,10.19 -3.35,10.14 -4.29,9.76 -5.24,9.38 -6.01,8.72 -6.79,8.07 -7.31,7.19 -7.84,6.32 -8.06,5.33 -8.28,4.33 -8.17,3.32 -8.06,2.31 -7.63,1.39 -7.20,0.46 -6.50,-0.26 -5.80,-1.00 -4.90,-1.48 -4.00,-1.96 -3.00,-2.12 -1.99,-2.28 -1.99,-2.28 -1.99,-2.28 0.62,-2.22 3.25,-2.15 5.41,-2.06 7.57,-1.97 9.98,-2.00 12.40,-2.03 17.22,-2.31 22.04,-2.59 24.64,-2.55 27.24,-2.51 31.15,-2.50 35.05,-2.50 37.86,-2.32 40.66,-2.14 42.99,-1.30 45.31,-0.46 48.66,0.50 52.00,1.46 56.33,2.73 60.66,3.99 62.94,4.62 65.23,5.26 67.26,6.00 69.29,6.74 71.79,7.87 74.29,9.00 77.50,9.62 80.70,10.24 83.51,11.59 86.32,12.95 89.00,13.98 91.69,15.00 94.96,15.91 98.23,16.83 100.84,17.99 103.45,19.16 107.12,20.52 110.80,21.88 112.83,22.88 114.86,23.88 118.11,26.03 121.36,28.18 123.24,29.34 125.12,30.51 127.82,31.36 130.51,32.21 132.33,33.39 134.15,34.57 135.65,36.19 137.15,37.82 138.92,40.36 140.69,42.90 142.35,45.25 144.02,47.61 146.36,50.40 148.71,53.19 150.17,57.14 151.64,61.09 152.51,64.19 153.38,67.28 156.32,70.93 159.25,74.57 161.17,77.32 163.09,80.07 167.00,85.48 170.92,90.88 172.56,93.27 174.20,95.67 175.65,98.80 177.10,101.94 179.10,105.99 181.10,110.05 184.36,116.01 187.62,121.97 188.68,124.05 189.75,126.12 189.87,128.70 189.99,131.29 189.90,134.47 189.81,137.64 189.62,141.54 189.43,145.43 189.23,148.88 189.04,152.33 188.98,155.33 188.93,158.33 188.66,160.56 188.39,162.80 187.85,165.06 187.31,167.32 186.20,170.35 185.09,173.37 183.04,177.17 181.00,180.97 178.72,183.81 176.44,186.65 170.66,190.17 164.89,193.69 162.60,193.56 160.32,193.44 156.92,192.66 153.52,191.88 149.08,190.58 144.64,189.29 142.49,187.50 140.33,185.72 138.27,183.52 136.21,181.32 135.01,179.31 133.80,177.30 132.35,174.72 130.90,172.15 129.95,170.07 129.01,168.00 127.21,164.23 125.41,160.47 124.57,157.77 123.72,155.06 122.62,152.93 121.51,150.79 120.46,148.67 119.40,146.54 118.38,144.36 117.35,142.17 114.77,139.72 112.18,137.27 108.43,137.40 104.68,137.53 101.79,138.06 98.91,138.58 98.35,141.53 97.79,144.48 97.70,147.26 97.61,150.04 97.86,153.38 98.11,156.72 98.39,160.34 98.68,163.97 100.08,167.57 101.48,171.16 102.29,173.34 103.09,175.52 103.74,177.99 104.39,180.45 105.20,184.65 106.00,188.86 106.37,191.58 106.73,194.30 106.95,197.21 107.17,200.12 107.62,203.53 108.07,206.94 108.02,210.25 107.96,213.56 107.86,216.68 107.76,219.80 107.63,223.10 107.49,226.39 107.65,232.55 107.80,238.72 106.67,242.07 105.54,245.42 105.07,248.61 104.60,251.80 104.20,254.69 103.81,257.58 103.51,260.99 103.22,264.41 103.04,266.68 102.87,268.96 102.56,272.13 102.26,275.30 101.43,277.58 100.61,279.86 99.76,282.82 98.92,285.77 97.51,288.25 96.10,290.72 94.10,292.13 92.10,293.53 88.43,294.16 84.76,294.79 82.54,294.68 80.33,294.58 77.86,294.30 75.38,294.02 72.38,292.91 69.37,291.81 66.66,290.02 63.95,288.23 61.35,286.96 58.74,285.68 56.90,284.26 55.06,282.84 52.92,279.82 50.78,276.80 49.68,274.75 48.58,272.69 47.87,270.56 47.16,268.43 45.26,263.95 43.36,259.47 40.90,255.82 38.43,252.18 38.06,249.98 37.69,247.79 37.57,243.09 37.44,238.38 35.46,234.81 33.47,231.24 32.81,229.12 32.14,227.00 29.23,223.71 26.32,220.42 23.91,218.79 21.50,217.16 19.28,216.84 17.07,216.51 16.22,219.21 15.36,221.91 15.20,225.56 15.05,229.21 14.81,232.80 14.56,236.39 14.85,240.77 15.13,245.16 14.98,247.96 14.83,250.76 14.44,254.04 14.05,257.31 13.38,259.45 12.71,261.59 12.36,264.98 12.02,268.37 11.43,271.11 10.85,273.85 9.75,276.71 8.66,279.58 7.18,282.10 5.70,284.62 2.21,286.92 -1.27,289.22 -5.89,289.80 -10.51,290.39 -13.57,290.46 -16.62,290.53 -19.86,290.61 -23.09,290.70 -26.08,290.30 -29.06,289.91 -31.67,289.35 -34.27,288.79 -36.91,287.68 -39.56,286.57 -41.30,285.23 -43.04,283.89 -44.59,281.86 -46.15,279.84 -47.44,277.59 -48.73,275.34 -50.42,271.93 -52.11,268.52 -52.79,266.32 -53.46,264.12 -53.67,260.84 -53.89,257.57 -53.90,254.58 -53.92,251.59 -53.71,247.25 -53.51,242.91 -53.43,240.14 -53.35,237.38 -53.19,234.96 -53.03,232.54 -53.01,228.85 -52.99,225.16 -52.87,221.00 -52.76,216.83 -52.15,214.63 -51.53,212.43 -50.74,208.16 -49.95,203.88 -49.54,200.63 -49.13,197.37 -48.95,194.76 -48.78,192.15 -47.83,188.93 -46.87,185.72 -46.30,182.68 -45.74,179.64 -45.01,176.41 -44.28,173.19 -43.20,169.21 -42.12,165.23 -41.56,161.52 -41.00,157.81 -40.57,154.57 -40.14,151.34 -39.95,148.06 -39.76,144.79 -39.84,140.90 -39.93,137.01 -39.92,134.55 -39.92,132.09 -39.99,128.69 -40.07,125.29 -40.46,122.56 -40.85,119.84 -41.81,117.90 -42.76,115.97 -40.72,117.83 -38.68,119.70 -40.95,119.67 -43.22,119.64 -45.19,121.09 -47.16,122.55 -49.13,124.84 -51.10,127.13 -52.75,130.38 -54.40,133.64 -55.05,136.56 -55.70,139.49 -55.85,141.95 -56.00,144.41 -56.19,146.90 -56.37,149.39 -56.98,151.60 -57.59,153.80 -58.44,156.35 -59.29,158.90 -59.92,161.99 -60.56,165.08 -62.36,169.10 -64.15,173.13 -66.01,176.82 -67.86,180.52 -69.26,182.58 -70.65,184.63 -73.30,186.74 -75.96,188.86 -79.02,189.67 -82.09,190.48 -85.05,190.39 -88.02,190.31 -91.01,189.63 -94.00,188.96 -96.62,186.66 -99.23,184.35 -100.58,182.26 -101.93,180.17 -103.03,177.71 -104.13,175.26 -105.71,171.55 -107.30,167.85 -107.60,165.12 -107.90,162.40 -107.67,159.45 -107.43,156.51 -107.40,153.48 -107.37,150.44 -107.24,148.04 -107.11,145.64 -107.01,142.70 -106.91,139.76 -106.89,136.23 -106.86,132.70 -107.03,126.37 -107.20,120.04 -107.15,115.69 -107.11,111.35 -106.42,109.20 -105.74,107.05 -103.71,104.02 -101.68,101.00 -100.67,98.31 -99.66,95.62 -98.34,93.18 -97.02,90.73 -95.47,87.44 -93.93,84.15 -91.94,79.83 -89.95,75.50 -88.29,72.12 -86.63,68.74 -84.30,64.23 -81.97,59.72 -80.16,56.88 -78.34,54.04 -75.55,49.79 -72.77,45.54 -70.13,42.74 -67.49,39.94 -65.96,38.34 -64.43,36.73 -62.85,34.85 -61.28,32.97 -57.92,28.60 -54.57,24.22 -52.93,22.60 -51.29,20.99 -49.88,18.69 -48.47,16.39 -45.49,13.86 -42.51,11.34 -39.94,9.01 -37.36,6.69 -34.64,4.80 -31.91,2.92 -28.99,1.62 -26.07,0.32 -20.04,-1.77 -14.01,-3.87 -9.30,-4.38 -4.6,-4.88 -2.3,-4.80 0,-4.72 0.56,-4.65 1.13,-4.58 1.66,-4.38 2.19,-4.18 2.66,-3.85 3.13,-3.53 3.50,-3.10 3.88,-2.68 4.15,-2.17 4.41,-1.67 4.55,-1.12 4.68,-0.56 4.68,0.00 4.68,0.56 4.55,1.12 4.41,1.67 4.15,2.17 3.88,2.68 3.50,3.10 3.13,3.53 2.66,3.85 2.19,4.18 1.66,4.38 1.12,4.58 0.56,4.65 -0.00,4.72 -0.00,4.72 L 0,4.72 Z"></path></g><g transform="translate(117 299.263157894737) rotate(0 14.5 -66.5)" stroke="none"><path fill="#1e1e1e" d="M 0,-5.25 Q 0,-5.25 2.87,-5.22 5.75,-5.19 8.76,-5.35 11.77,-5.51 15.59,-5.61 19.42,-5.70 22.05,-5.86 24.69,-6.02 27.56,-6.14 30.43,-6.27 33.45,-6.31 36.47,-6.36 39.72,-6.38 42.97,-6.41 45.19,-6.47 47.42,-6.53 50.75,-6.60 54.08,-6.66 56.99,-6.72 59.89,-6.77 62.97,-6.76 66.04,-6.76 68.39,-6.81 70.74,-6.87 73.35,-6.92 75.96,-6.97 76.79,-6.87 77.63,-6.76 78.41,-6.47 79.20,-6.17 79.89,-5.69 80.58,-5.21 81.14,-4.58 81.70,-3.95 82.09,-3.21 82.48,-2.47 82.68,-1.65 82.88,-0.83 82.88,0.00 82.88,0.84 82.68,1.65 82.48,2.47 82.09,3.21 81.70,3.96 81.14,4.58 80.58,5.21 79.89,5.69 79.20,6.17 78.41,6.47 77.63,6.76 76.79,6.87 75.96,6.97 72.28,2.70 68.60,-1.56 68.46,-5.97 68.32,-10.38 68.66,-14.31 69.00,-18.23 69.13,-21.33 69.25,-24.42 69.26,-26.88 69.27,-29.35 69.19,-32.81 69.10,-36.27 69.13,-38.78 69.16,-41.29 69.55,-45.52 69.94,-49.75 70.14,-53.55 70.33,-57.36 70.58,-61.57 70.84,-65.78 70.74,-68.43 70.64,-71.08 70.62,-74.22 70.60,-77.35 70.49,-79.55 70.37,-81.75 70.40,-84.98 70.43,-88.22 70.20,-91.57 69.98,-94.92 68.98,-97.53 67.97,-100.14 67.27,-102.49 66.56,-104.84 65.68,-109.05 64.80,-113.27 64.52,-115.73 64.25,-118.19 60.81,-118.02 57.37,-117.85 53.62,-118.67 49.86,-119.49 47.54,-119.74 45.21,-119.98 42.52,-120.02 39.82,-120.05 37.39,-120.81 34.96,-121.56 32.21,-121.71 29.47,-121.86 26.35,-121.85 23.23,-121.84 18.04,-122.75 12.85,-123.65 10.09,-124.60 7.34,-125.55 2.80,-126.30 -1.73,-127.04 -4.71,-127.16 -7.70,-127.28 -10.04,-127.20 -12.37,-127.11 -14.84,-127.02 -17.31,-126.92 -20.71,-126.95 -24.11,-126.98 -26.38,-126.99 -28.64,-127.01 -31.12,-126.92 -33.60,-126.84 -36.10,-126.77 -38.60,-126.70 -40.92,-126.58 -43.23,-126.47 -41.10,-128.63 -38.97,-130.80 -38.64,-127.60 -38.30,-124.39 -38.40,-121.99 -38.49,-119.58 -38.87,-115.19 -39.25,-110.80 -39.42,-108.56 -39.58,-106.32 -40.47,-102.60 -41.35,-98.88 -41.97,-91.58 -42.58,-84.27 -43.00,-79.01 -43.42,-73.74 -43.41,-70.92 -43.41,-68.10 -43.59,-61.99 -43.77,-55.87 -43.67,-53.32 -43.57,-50.77 -43.73,-46.81 -43.89,-42.85 -43.81,-40.02 -43.72,-37.18 -43.47,-33.66 -43.21,-30.14 -42.99,-27.99 -42.76,-25.84 -42.56,-21.94 -42.35,-18.04 -42.18,-14.90 -42.01,-11.76 -41.92,-9.52 -41.83,-7.28 -38.61,-7.27 -35.39,-7.25 -31.54,-6.92 -27.69,-6.58 -24.90,-6.53 -22.11,-6.48 -18.05,-6.56 -13.98,-6.64 -10.26,-6.72 -6.53,-6.80 -2.42,-6.84 1.69,-6.87 4.37,-7.01 7.06,-7.15 9.53,-7.18 12.00,-7.21 12.99,-7.05 13.98,-6.89 14.87,-6.42 15.76,-5.95 16.45,-5.22 17.14,-4.49 17.57,-3.57 17.99,-2.66 18.10,-1.66 18.21,-0.66 17.99,0.31 17.77,1.30 17.25,2.16 16.74,3.02 15.97,3.67 15.20,4.32 14.27,4.70 13.33,5.07 12.33,5.12 11.32,5.18 10.35,4.91 9.38,4.64 8.55,4.07 7.72,3.51 7.11,2.71 6.50,1.91 6.18,0.95 5.86,0.00 5.86,-1.00 5.86,-2.00 6.18,-2.96 6.50,-3.91 7.11,-4.71 7.72,-5.51 8.55,-6.08 9.38,-6.64 10.35,-6.91 11.32,-7.18 12.33,-7.12 13.33,-7.07 14.27,-6.70 15.20,-6.32 15.97,-5.67 16.74,-5.02 17.25,-4.16 17.77,-3.30 17.99,-2.31 18.21,-1.33 18.10,-0.33 17.99,0.66 17.56,1.57 17.14,2.49 16.45,3.22 15.76,3.95 14.87,4.42 13.98,4.89 12.99,5.05 11.99,5.21 11.99,5.21 11.99,5.21 9.53,5.18 7.06,5.15 4.37,5.01 1.69,4.87 -2.42,4.84 -6.53,4.80 -10.26,4.72 -13.99,4.64 -18.06,4.55 -22.14,4.46 -24.93,4.50 -27.73,4.54 -31.62,4.85 -35.51,5.16 -39.82,5.17 -44.13,5.18 -47.14,4.51 -50.14,3.85 -51.67,1.86 -53.20,-0.12 -53.68,-3.70 -54.16,-7.28 -54.07,-9.52 -53.98,-11.76 -53.81,-14.90 -53.64,-18.04 -53.43,-21.94 -53.23,-25.84 -53.00,-27.99 -52.78,-30.14 -52.52,-33.66 -52.26,-37.18 -52.18,-40.02 -52.09,-42.85 -52.25,-46.81 -52.41,-50.78 -52.30,-53.33 -52.19,-55.89 -52.32,-62.07 -52.44,-68.25 -52.34,-71.09 -52.23,-73.93 -52.43,-79.28 -52.62,-84.62 -52.70,-92.81 -52.78,-101.00 -52.41,-103.98 -52.04,-106.96 -51.96,-109.64 -51.88,-112.32 -51.67,-116.00 -51.45,-119.67 -51.47,-124.06 -51.50,-128.44 -50.51,-131.82 -49.52,-135.19 -46.38,-137.36 -43.23,-139.52 -40.92,-139.41 -38.60,-139.29 -36.10,-139.22 -33.60,-139.15 -31.12,-139.07 -28.64,-138.98 -26.37,-139.00 -24.11,-139.01 -20.69,-139.03 -17.28,-139.06 -14.75,-138.95 -12.23,-138.84 -9.58,-138.66 -6.93,-138.48 -3.64,-138.07 -0.35,-137.66 3.19,-137.36 6.74,-137.05 10.64,-135.84 14.54,-134.62 18.96,-134.36 23.38,-134.09 26.68,-133.95 29.98,-133.82 32.99,-133.70 36.01,-133.58 38.22,-132.69 40.44,-131.80 43.38,-131.54 46.32,-131.27 49.09,-131.02 51.87,-130.76 54.70,-130.41 57.54,-130.06 59.93,-130.06 62.33,-130.07 66.46,-129.59 70.59,-129.11 72.18,-127.62 73.77,-126.13 74.85,-123.62 75.93,-121.11 75.86,-118.87 75.79,-116.64 75.88,-113.84 75.97,-111.03 76.70,-107.73 77.42,-104.43 78.71,-99.68 80.01,-94.92 79.79,-91.57 79.56,-88.22 79.59,-84.98 79.62,-81.75 79.50,-79.55 79.39,-77.35 79.37,-74.22 79.35,-71.08 79.25,-68.43 79.15,-65.78 79.41,-61.57 79.66,-57.36 79.85,-53.55 80.05,-49.75 80.44,-45.52 80.83,-41.29 80.86,-38.78 80.89,-36.28 80.81,-32.82 80.73,-29.37 80.75,-26.91 80.77,-24.45 80.91,-21.38 81.05,-18.30 81.43,-14.48 81.82,-10.66 82.01,-7.42 82.21,-4.18 79.08,-5.57 75.96,-6.97 76.79,-6.87 77.63,-6.76 78.41,-6.47 79.20,-6.17 79.89,-5.69 80.58,-5.21 81.14,-4.58 81.70,-3.96 82.09,-3.21 82.48,-2.47 82.68,-1.65 82.88,-0.84 82.88,-0.00 82.88,0.83 82.68,1.65 82.48,2.47 82.09,3.21 81.70,3.95 81.14,4.58 80.58,5.21 79.89,5.69 79.20,6.17 78.41,6.47 77.63,6.76 76.79,6.87 75.96,6.97 73.35,6.92 70.74,6.87 68.39,6.81 66.04,6.76 62.97,6.76 59.89,6.77 56.99,6.72 54.08,6.66 50.75,6.60 47.42,6.53 45.19,6.47 42.97,6.41 39.72,6.38 36.47,6.36 33.45,6.31 30.43,6.27 27.56,6.14 24.69,6.02 22.05,5.86 19.42,5.70 15.59,5.61 11.77,5.51 8.76,5.35 5.75,5.19 2.87,5.22 0,5.25 -0.62,5.17 -1.25,5.09 -1.84,4.87 -2.44,4.64 -2.96,4.28 -3.48,3.93 -3.90,3.45 -4.32,2.98 -4.61,2.42 -4.90,1.86 -5.06,1.24 -5.21,0.63 -5.21,-0.00 -5.21,-0.63 -5.06,-1.24 -4.90,-1.86 -4.61,-2.42 -4.32,-2.98 -3.90,-3.45 -3.48,-3.93 -2.96,-4.29 -2.43,-4.64 -1.84,-4.87 -1.25,-5.09 -0.62,-5.17 0.00,-5.25 0.00,-5.25 L 0,-5.25 Z"></path></g><g transform="translate(103 212.263157894737) rotate(0 0.00005000000000165983 0.00005000000000165983)" stroke="none"><path fill="#1e1e1e" d="M 3.14,-3.14 Q 3.14,-3.14 3.55,-2.55 3.97,-1.97 4.18,-1.28 4.40,-0.59 4.38,0.11 4.36,0.83 4.11,1.51 3.86,2.18 3.41,2.74 2.96,3.30 2.36,3.69 1.75,4.08 1.05,4.25 0.36,4.42 -0.35,4.36 -1.07,4.31 -1.73,4.02 -2.39,3.74 -2.92,3.26 -3.46,2.78 -3.81,2.15 -4.16,1.53 -4.30,0.82 -4.43,0.11 -4.34,-0.59 -4.24,-1.30 -3.92,-1.94 -3.60,-2.59 -3.09,-3.09 -2.59,-3.60 -1.94,-3.92 -1.30,-4.24 -0.59,-4.34 0.12,-4.43 0.82,-4.30 1.53,-4.16 2.15,-3.81 2.78,-3.46 3.26,-2.92 3.74,-2.39 4.02,-1.73 4.31,-1.07 4.36,-0.35 4.42,0.36 4.25,1.05 4.07,1.75 3.69,2.36 3.30,2.96 2.74,3.41 2.18,3.86 1.51,4.11 0.83,4.36 0.11,4.38 -0.60,4.40 -1.28,4.18 -1.97,3.97 -2.55,3.55 -3.14,3.13 -3.14,3.14 -3.14,3.14 -3.47,2.71 -3.80,2.29 -4.02,1.80 -4.24,1.32 -4.33,0.79 -4.43,0.26 -4.40,-0.26 -4.36,-0.80 -4.20,-1.31 -4.04,-1.82 -3.77,-2.28 -3.49,-2.73 -3.11,-3.11 -2.73,-3.49 -2.28,-3.77 -1.82,-4.05 -1.31,-4.20 -0.80,-4.36 -0.26,-4.40 0.26,-4.43 0.79,-4.33 1.32,-4.24 1.80,-4.02 2.29,-3.80 2.71,-3.47 3.14,-3.14 3.14,-3.14 L 3.14,-3.14 Z"></path></g><g transform="translate(145 213.263157894737) rotate(0 0.00005000000000165983 0.00005000000000165983)" stroke="none"><path fill="#1e1e1e" d="M 3.14,-3.14 Q 3.14,-3.14 3.55,-2.55 3.97,-1.97 4.18,-1.28 4.40,-0.59 4.38,0.11 4.36,0.83 4.11,1.51 3.86,2.18 3.41,2.74 2.96,3.30 2.36,3.69 1.75,4.08 1.05,4.25 0.36,4.42 -0.35,4.36 -1.07,4.31 -1.73,4.02 -2.39,3.74 -2.92,3.26 -3.46,2.78 -3.81,2.15 -4.16,1.53 -4.30,0.82 -4.43,0.11 -4.34,-0.59 -4.24,-1.30 -3.92,-1.94 -3.60,-2.59 -3.09,-3.09 -2.59,-3.60 -1.94,-3.92 -1.30,-4.24 -0.59,-4.34 0.12,-4.43 0.82,-4.30 1.53,-4.16 2.15,-3.81 2.78,-3.46 3.26,-2.92 3.74,-2.39 4.02,-1.73 4.31,-1.07 4.36,-0.35 4.42,0.36 4.25,1.05 4.07,1.75 3.69,2.36 3.30,2.96 2.74,3.41 2.18,3.86 1.51,4.11 0.83,4.36 0.11,4.38 -0.60,4.40 -1.28,4.18 -1.97,3.97 -2.55,3.55 -3.14,3.13 -3.14,3.14 -3.14,3.14 -3.47,2.71 -3.80,2.29 -4.02,1.80 -4.24,1.32 -4.33,0.79 -4.43,0.26 -4.40,-0.26 -4.36,-0.80 -4.20,-1.31 -4.04,-1.82 -3.77,-2.28 -3.49,-2.73 -3.11,-3.11 -2.73,-3.49 -2.28,-3.77 -1.82,-4.05 -1.31,-4.20 -0.80,-4.36 -0.26,-4.40 0.26,-4.43 0.79,-4.33 1.32,-4.24 1.80,-4.02 2.29,-3.80 2.71,-3.47 3.14,-3.14 3.14,-3.14 L 3.14,-3.14 Z"></path></g><g transform="translate(100 260.263157894737) rotate(0 24 4.5)" stroke="none"><path fill="#1e1e1e" d="M 0,-5.09 Q 0,-5.09 2.01,-5.16 4.02,-5.24 9.75,-5.14 15.47,-5.05 18.08,-4.45 20.70,-3.84 24.17,-3.24 27.64,-2.64 30.02,-2.32 32.41,-2.01 34.67,-1.41 36.93,-0.80 39.15,-0.09 41.37,0.61 43.64,1.01 45.90,1.42 47.98,2.09 50.06,2.77 51.00,3.27 51.94,3.76 52.67,4.52 53.40,5.29 53.85,6.25 54.30,7.21 54.42,8.27 54.54,9.32 54.32,10.36 54.10,11.39 53.55,12.30 53.01,13.21 52.21,13.91 51.40,14.60 50.42,14.99 49.43,15.39 48.38,15.45 47.32,15.51 46.29,15.24 45.27,14.96 44.39,14.37 43.51,13.77 42.86,12.93 42.22,12.09 41.88,11.09 41.53,10.09 41.53,9.02 41.52,7.96 41.86,6.96 42.19,5.95 42.83,5.10 43.47,4.26 44.34,3.66 45.22,3.06 46.24,2.77 47.26,2.48 48.32,2.53 49.37,2.59 50.36,2.98 51.35,3.36 52.16,4.05 52.97,4.73 53.52,5.64 54.07,6.54 54.31,7.58 54.54,8.61 54.43,9.67 54.32,10.72 53.88,11.68 53.44,12.65 52.71,13.42 51.98,14.20 51.05,14.70 50.12,15.20 49.07,15.37 48.02,15.55 46.98,15.38 45.93,15.22 45.93,15.22 45.93,15.22 45.14,14.79 44.34,14.36 41.64,13.56 38.95,12.77 35.59,11.27 32.23,9.77 29.91,9.32 27.60,8.87 25.32,7.88 23.05,6.90 19.20,5.98 15.35,5.05 9.68,5.14 4.02,5.24 2.01,5.16 0,5.09 -0.60,5.02 -1.21,4.94 -1.79,4.72 -2.36,4.51 -2.87,4.16 -3.37,3.81 -3.78,3.35 -4.19,2.89 -4.47,2.35 -4.76,1.80 -4.91,1.21 -5.05,0.61 -5.05,-0.00 -5.05,-0.61 -4.91,-1.21 -4.76,-1.80 -4.47,-2.35 -4.19,-2.89 -3.78,-3.35 -3.37,-3.81 -2.87,-4.16 -2.36,-4.51 -1.79,-4.72 -1.21,-4.94 -0.60,-5.02 0.00,-5.09 0.00,-5.09 L 0,-5.09 Z"></path></g><g transform="translate(591.1578947368422 371.0526315789474) rotate(0 39.99999999999994 78.9473684210526)" stroke="none"><path fill="#1e1e1e" d="M 5.02,-1.50 Q 5.02,-1.50 5.85,1.54 6.69,4.59 7.20,7.06 7.71,9.54 8.13,12.73 8.55,15.93 8.72,19.37 8.88,22.81 9.27,26.29 9.66,29.77 10.74,31.71 11.82,33.65 12.14,36.73 12.46,39.81 12.56,42.65 12.65,45.48 12.52,48.45 12.39,51.42 12.44,54.98 12.48,58.54 12.55,61.04 12.63,63.54 12.28,66.01 11.93,68.49 11.81,71.07 11.68,73.65 11.25,76.20 10.81,78.75 9.92,81.26 9.04,83.76 8.46,86.17 7.89,88.58 7.17,91.09 6.46,93.61 3.92,99.00 1.39,104.39 0.52,106.45 -0.33,108.51 -0.61,111.08 -0.90,113.66 -1.70,117.25 -2.51,120.84 -2.75,123.98 -2.99,127.11 -3.03,130.42 -3.08,133.74 -3.00,136.39 -2.92,139.05 -2.96,142.54 -3.00,146.04 -2.95,148.48 -2.90,150.92 -2.86,153.26 -2.83,155.60 -2.81,158.31 -2.78,161.02 -2.72,163.22 -2.65,165.43 -2.60,167.97 -2.55,170.52 -2.50,173.29 -2.46,176.05 -3.33,178.77 -4.19,181.48 -5.11,183.73 -6.02,185.99 -6.87,188.61 -7.71,191.23 -7.75,194.55 -7.80,197.88 -7.80,200.52 -7.80,203.15 -7.83,206.35 -7.85,209.54 -7.49,212.97 -7.13,216.41 -5.85,218.94 -4.58,221.46 -3.44,224.58 -2.30,227.69 -0.88,229.70 0.52,231.71 3.03,231.23 5.54,230.76 6.73,227.93 7.92,225.10 9.82,222.50 11.72,219.91 13.66,216.98 15.60,214.06 17.26,210.65 18.91,207.25 20.35,205.49 21.78,203.72 21.69,200.98 21.60,198.24 21.67,194.89 21.74,191.55 21.68,188.88 21.63,186.21 21.60,184.05 21.58,181.89 21.53,179.19 21.49,176.49 21.47,174.17 21.46,171.86 21.46,169.11 21.47,166.36 21.51,162.97 21.55,159.59 21.53,157.29 21.52,155.00 21.48,152.01 21.45,149.01 21.40,146.41 21.36,143.82 21.81,141.56 22.26,139.30 23.26,136.93 24.26,134.55 25.64,132.18 27.01,129.80 27.83,127.37 28.65,124.94 29.86,123.18 31.08,121.42 32.69,119.56 34.31,117.70 36.91,116.89 39.51,116.08 42.25,116.72 44.99,117.35 47.50,119.47 50.01,121.58 51.03,124.52 52.05,127.45 53.60,129.47 55.15,131.48 55.79,134.70 56.43,137.91 57.36,140.61 58.29,143.31 58.68,146.00 59.07,148.68 59.25,152.13 59.42,155.59 59.88,157.99 60.34,160.40 60.43,163.61 60.51,166.82 60.55,169.24 60.58,171.66 60.45,174.36 60.32,177.06 60.34,180.04 60.35,183.01 60.39,185.40 60.42,187.79 60.32,192.02 60.21,196.25 60.25,198.82 60.29,201.39 60.23,203.71 60.17,206.04 60.21,208.61 60.25,211.18 59.79,215.53 59.33,219.88 59.28,222.64 59.23,225.39 59.55,229.41 59.86,233.43 60.21,236.27 60.56,239.10 60.86,241.48 61.15,243.86 63.27,242.94 65.38,242.02 67.56,241.92 69.74,241.83 72.59,240.86 75.44,239.89 78.05,238.78 80.66,237.66 82.26,235.48 83.86,233.29 85.01,231.35 86.16,229.42 87.36,227.50 88.56,225.59 88.80,223.26 89.04,220.94 89.04,218.79 89.05,216.65 89.13,214.29 89.21,211.93 89.19,209.02 89.17,206.11 89.24,203.75 89.30,201.39 89.34,197.45 89.37,193.51 89.42,191.15 89.48,188.79 89.04,186.64 88.60,184.50 87.12,180.43 85.64,176.37 83.99,173.52 82.34,170.67 81.66,167.93 80.97,165.18 80.11,161.74 79.25,158.29 79.22,155.77 79.18,153.25 78.42,148.75 77.65,144.25 77.42,140.47 77.20,136.68 77.12,133.51 77.03,130.33 76.91,127.14 76.79,123.94 76.88,121.29 76.97,118.65 76.95,114.84 76.94,111.04 76.87,108.80 76.80,106.56 74.78,105.34 72.77,104.13 71.27,101.88 69.77,99.63 68.97,97.64 68.17,95.66 67.68,93.46 67.20,91.27 67.03,88.36 66.86,85.46 65.04,82.28 63.22,79.10 61.24,75.75 59.27,72.41 57.76,70.49 56.24,68.56 54.40,65.48 52.56,62.40 51.34,60.00 50.11,57.59 49.82,55.06 49.54,52.52 49.51,49.60 49.48,46.68 49.46,44.26 49.43,41.85 49.41,39.20 49.38,36.56 49.36,33.93 49.34,31.30 49.32,28.67 49.30,26.04 49.29,23.10 49.28,20.17 49.28,17.90 49.29,15.63 49.27,13.46 49.26,11.30 49.26,8.89 49.25,6.48 49.25,4.16 49.24,1.84 49.26,-1.30 49.28,-4.45 49.29,-7.01 49.30,-9.58 50.06,-13.01 50.81,-16.44 51.97,-19.33 53.13,-22.23 54.48,-26.59 55.84,-30.95 57.18,-34.11 58.52,-37.28 59.87,-39.78 61.23,-42.29 64.51,-43.27 67.79,-44.25 71.32,-44.08 74.85,-43.91 77.43,-42.73 80.01,-41.55 82.74,-40.35 85.47,-39.14 89.13,-37.62 92.78,-36.09 95.87,-33.69 98.95,-31.29 102.15,-28.34 105.35,-25.38 107.64,-22.51 109.93,-19.65 111.87,-14.65 113.82,-9.65 114.66,-5.25 115.50,-0.85 115.58,1.50 115.67,3.86 115.69,6.08 115.72,8.29 116.25,11.37 116.78,14.45 117.31,17.41 117.84,20.38 118.78,22.77 119.73,25.16 120.75,27.63 121.76,30.10 123.80,33.48 125.84,36.86 127.99,38.78 130.14,40.70 132.46,41.04 134.78,41.38 136.85,38.81 138.93,36.24 140.57,33.04 142.22,29.84 142.25,27.08 142.29,24.33 142.35,21.09 142.41,17.85 142.44,15.06 142.48,12.27 142.52,8.93 142.56,5.60 142.23,3.09 141.89,0.58 141.24,-1.56 140.58,-3.71 140.12,-6.51 139.67,-9.31 138.94,-12.60 138.21,-15.88 137.83,-18.16 137.46,-20.45 136.71,-22.87 135.96,-25.29 135.04,-27.59 134.11,-29.90 132.89,-32.49 131.66,-35.09 131.03,-38.13 130.39,-41.16 129.79,-43.58 129.19,-46.01 128.73,-49.90 128.27,-53.79 127.76,-56.40 127.25,-59.01 125.69,-60.77 124.12,-62.53 121.06,-63.87 117.99,-65.21 115.54,-66.79 113.10,-68.36 110.94,-69.95 108.79,-71.54 105.49,-72.40 102.20,-73.26 98.36,-74.64 94.51,-76.03 92.57,-77.02 90.62,-78.01 86.72,-79.23 82.82,-80.46 79.20,-81.05 75.59,-81.63 73.28,-81.86 70.97,-82.08 66.58,-83.21 62.18,-84.34 58.54,-84.60 54.90,-84.86 52.19,-84.80 49.48,-84.73 45.94,-84.70 42.39,-84.67 39.28,-84.79 36.17,-84.91 33.64,-84.93 31.11,-84.94 28.84,-84.82 26.57,-84.69 22.97,-84.63 19.37,-84.56 16.53,-84.64 13.70,-84.73 10.53,-84.23 7.36,-83.72 4.15,-83.33 0.94,-82.93 -1.80,-82.21 -4.54,-81.49 -8.55,-79.58 -12.55,-77.68 -15.14,-75.89 -17.72,-74.09 -20.40,-72.46 -23.08,-70.83 -27.04,-68.10 -31.01,-65.38 -33.08,-64.29 -35.16,-63.20 -38.02,-61.03 -40.89,-58.85 -41.21,-55.19 -41.54,-51.52 -42.54,-49.26 -43.54,-47.00 -44.52,-45.07 -45.50,-43.14 -46.62,-41.23 -47.74,-39.33 -49.58,-35.71 -51.42,-32.09 -53.12,-28.95 -54.81,-25.80 -56.23,-22.34 -57.66,-18.88 -58.47,-16.52 -59.29,-14.17 -60.29,-12.04 -61.29,-9.91 -62.30,-5.31 -63.31,-0.70 -63.54,2.44 -63.77,5.59 -63.71,8.23 -63.66,10.87 -63.71,13.48 -63.76,16.09 -64.04,19.93 -64.31,23.78 -64.64,28.74 -64.96,33.71 -65.21,38.54 -65.46,43.38 -65.48,46.94 -65.50,50.51 -65.35,52.63 -65.20,54.75 -64.97,58.29 -64.74,61.82 -64.76,64.93 -64.78,68.03 -64.57,71.08 -64.37,74.13 -64.25,77.92 -64.13,81.70 -64.12,84.24 -64.11,86.77 -64.02,90.63 -63.93,94.48 -62.65,96.98 -61.37,99.49 -58.98,101.87 -56.60,104.25 -53.52,105.73 -50.45,107.21 -47.64,108.77 -44.84,110.33 -42.55,110.83 -40.26,111.32 -37.97,111.22 -35.69,111.11 -36.75,108.64 -37.82,106.18 -37.73,103.83 -37.65,101.47 -37.62,99.23 -37.59,96.99 -37.58,94.83 -37.56,92.66 -37.47,88.07 -37.37,83.48 -37.38,81.27 -37.39,79.05 -37.38,74.61 -37.37,70.16 -37.47,67.24 -37.57,64.33 -37.60,60.48 -37.63,56.63 -37.52,53.66 -37.40,50.70 -37.38,48.23 -37.36,45.75 -37.23,42.59 -37.10,39.42 -37.09,36.86 -37.08,34.30 -37.13,30.07 -37.18,25.85 -37.29,22.82 -37.40,19.79 -36.97,15.85 -36.53,11.90 -35.72,9.32 -34.91,6.74 -33.95,3.57 -32.99,0.40 -31.89,-3.94 -30.78,-8.29 -29.57,-10.64 -28.36,-12.98 -27.09,-15.63 -25.82,-18.27 -22.15,-20.66 -18.48,-23.05 -15.90,-24.61 -13.32,-26.17 -11.17,-26.72 -9.01,-27.27 -6.00,-26.71 -2.98,-26.14 -1.06,-25.03 0.84,-23.93 3.18,-21.72 5.52,-19.51 7.03,-14.74 8.55,-9.96 9.02,-7.27 9.50,-4.58 9.89,-1.78 10.28,1.02 10.40,4.10 10.51,7.19 10.62,9.89 10.73,12.59 10.75,14.98 10.77,17.37 10.80,19.21 10.82,21.05 10.65,22.10 10.48,23.16 9.98,24.11 9.47,25.05 8.70,25.79 7.92,26.52 6.95,26.97 5.98,27.42 4.91,27.54 3.85,27.66 2.80,27.43 1.76,27.20 0.84,26.64 -0.07,26.09 -0.76,25.28 -1.45,24.46 -1.85,23.46 -2.25,22.47 -2.31,21.40 -2.36,20.33 -2.08,19.30 -1.79,18.27 -1.19,17.38 -0.59,16.50 0.25,15.85 1.11,15.20 2.12,14.86 3.14,14.52 4.21,14.52 5.28,14.52 6.29,14.86 7.31,15.20 8.16,15.85 9.01,16.50 9.61,17.38 10.21,18.27 10.50,19.30 10.78,20.33 10.73,21.40 10.67,22.47 10.27,23.47 9.88,24.46 9.18,25.28 8.49,26.09 7.57,26.64 6.65,27.20 5.61,27.43 4.56,27.66 3.50,27.54 2.43,27.42 1.46,26.97 0.49,26.52 -0.28,25.79 -1.05,25.05 -1.55,24.11 -2.06,23.16 -2.23,22.10 -2.40,21.05 -2.40,21.05 -2.40,21.05 -2.38,17.44 -2.36,13.83 -2.28,11.50 -2.19,9.17 -2.15,6.78 -2.11,4.39 -2.11,2.18 -2.12,-0.02 -2.63,-3.25 -3.15,-6.48 -3.68,-8.57 -4.21,-10.66 -6.69,-12.59 -9.18,-14.53 -12.22,-13.15 -15.27,-11.77 -16.39,-9.43 -17.51,-7.09 -19.20,-4.41 -20.89,-1.74 -21.92,2.84 -22.95,7.43 -23.92,10.04 -24.89,12.66 -25.32,16.27 -25.74,19.89 -25.86,22.87 -25.97,25.85 -26.02,30.07 -26.06,34.30 -26.05,36.86 -26.04,39.42 -25.92,42.59 -25.79,45.75 -25.77,48.23 -25.74,50.70 -25.63,53.66 -25.52,56.63 -25.55,60.48 -25.58,64.33 -25.68,67.24 -25.78,70.16 -25.77,74.61 -25.76,79.06 -25.77,81.27 -25.78,83.48 -25.69,88.09 -25.61,92.70 -25.61,94.89 -25.61,97.08 -25.62,99.38 -25.62,101.67 -25.78,106.13 -25.94,110.59 -26.32,112.70 -26.71,114.81 -28.32,117.65 -29.92,120.50 -32.13,121.52 -34.34,122.54 -37.18,122.31 -40.02,122.08 -42.69,121.40 -45.36,120.73 -47.43,119.86 -49.51,118.99 -52.14,117.61 -54.77,116.23 -60.54,112.85 -66.32,109.48 -69.57,105.45 -72.82,101.43 -73.91,98.07 -75.00,94.71 -74.91,90.74 -74.83,86.77 -74.82,84.24 -74.81,81.70 -74.69,77.92 -74.57,74.13 -74.37,71.08 -74.16,68.03 -74.18,64.92 -74.19,61.82 -73.97,58.29 -73.74,54.75 -73.59,52.63 -73.43,50.51 -73.45,46.94 -73.48,43.37 -73.72,38.54 -73.97,33.70 -74.29,28.74 -74.61,23.77 -74.88,19.90 -75.14,16.04 -75.08,12.02 -75.02,8.00 -74.66,4.61 -74.29,1.21 -73.10,-3.30 -71.92,-7.82 -70.34,-12.76 -68.77,-17.70 -67.93,-19.81 -67.08,-21.93 -66.02,-26.14 -64.96,-30.36 -63.65,-33.88 -62.35,-37.41 -61.20,-40.17 -60.05,-42.93 -58.52,-45.86 -56.99,-48.79 -55.55,-51.67 -54.11,-54.55 -53.28,-57.89 -52.46,-61.22 -50.69,-64.30 -48.93,-67.37 -45.91,-69.76 -42.88,-72.14 -40.37,-73.35 -37.87,-74.56 -35.46,-76.48 -33.06,-78.41 -29.33,-80.67 -25.60,-82.93 -22.81,-84.56 -20.02,-86.19 -16.57,-87.40 -13.12,-88.61 -10.37,-90.13 -7.62,-91.65 -4.35,-92.70 -1.09,-93.74 2.72,-94.67 6.53,-95.60 10.09,-95.95 13.65,-96.31 16.51,-96.40 19.37,-96.49 22.97,-96.42 26.57,-96.35 28.84,-96.22 31.11,-96.10 33.65,-96.11 36.18,-96.12 39.30,-96.24 42.41,-96.36 44.77,-96.37 47.13,-96.38 49.95,-96.23 52.76,-96.07 56.18,-95.73 59.60,-95.39 61.74,-95.04 63.87,-94.68 67.84,-94.44 71.81,-94.20 76.94,-93.65 82.07,-93.11 85.96,-92.01 89.86,-90.92 93.01,-90.32 96.15,-89.71 99.20,-88.25 102.24,-86.79 104.72,-86.07 107.20,-85.34 109.99,-84.66 112.78,-83.97 114.87,-82.79 116.97,-81.61 119.83,-79.17 122.70,-76.74 124.62,-75.47 126.53,-74.21 128.93,-72.33 131.32,-70.44 133.36,-68.16 135.39,-65.87 136.48,-63.60 137.57,-61.32 138.19,-58.47 138.81,-55.62 139.60,-52.35 140.38,-49.08 141.32,-44.80 142.25,-40.52 143.50,-37.47 144.75,-34.41 145.91,-31.80 147.07,-29.19 148.58,-24.22 150.08,-19.25 150.90,-16.43 151.72,-13.62 152.11,-10.68 152.49,-7.73 153.56,-4.81 154.62,-1.90 155.52,3.47 156.41,8.84 156.48,12.46 156.55,16.07 156.54,18.38 156.54,20.68 156.56,23.56 156.57,26.44 156.23,29.28 155.89,32.12 154.57,35.56 153.24,39.01 152.07,41.17 150.89,43.34 149.22,44.94 147.55,46.53 145.82,48.34 144.08,50.16 142.06,51.84 140.03,53.53 136.78,54.23 133.53,54.94 131.05,54.15 128.58,53.37 126.20,52.42 123.82,51.47 121.30,49.41 118.77,47.34 115.76,43.97 112.75,40.59 111.49,38.38 110.23,36.16 108.86,32.80 107.48,29.43 106.17,25.74 104.86,22.04 104.37,19.03 103.87,16.03 103.47,13.51 103.07,10.99 103.01,7.73 102.96,4.47 102.69,0.92 102.42,-2.61 101.45,-6.17 100.47,-9.73 99.34,-12.07 98.21,-14.40 96.40,-16.09 94.59,-17.78 92.92,-19.14 91.24,-20.51 87.59,-22.47 83.93,-24.42 81.06,-25.32 78.18,-26.22 75.68,-27.98 73.17,-29.74 70.92,-29.57 68.67,-29.41 70.26,-31.45 71.85,-33.48 70.99,-31.51 70.12,-29.54 69.27,-26.96 68.42,-24.39 68.25,-21.78 68.07,-19.18 67.02,-17.09 65.97,-15.00 65.17,-12.29 64.37,-9.58 64.38,-7.01 64.39,-4.45 64.41,-1.30 64.43,1.84 64.43,4.16 64.42,6.48 64.42,8.89 64.41,11.30 64.40,13.46 64.39,15.63 64.39,17.90 64.40,20.17 64.39,23.10 64.38,26.04 64.36,28.67 64.34,31.30 64.32,33.93 64.29,36.56 64.27,39.20 64.24,41.85 64.22,44.26 64.19,46.67 63.78,49.58 63.37,52.50 64.40,54.58 65.42,56.66 67.08,59.01 68.75,61.37 69.99,63.95 71.24,66.54 73.53,70.11 75.82,73.68 77.61,76.52 79.40,79.36 79.93,83.19 80.47,87.03 80.50,89.20 80.54,91.38 81.32,93.54 82.10,95.70 84.44,97.17 86.78,98.64 88.15,102.60 89.51,106.56 89.44,108.80 89.37,111.04 89.35,114.84 89.34,118.64 89.43,121.29 89.51,123.94 89.41,127.11 89.30,130.28 89.27,133.33 89.25,136.38 89.35,139.83 89.45,143.28 89.61,145.46 89.77,147.64 90.65,150.02 91.53,152.40 91.62,154.95 91.71,157.49 92.28,160.13 92.84,162.76 93.84,165.64 94.83,168.52 95.82,170.40 96.82,172.29 98.10,175.17 99.38,178.04 100.40,181.20 101.41,184.37 101.75,186.56 102.09,188.75 102.15,191.13 102.20,193.51 102.23,197.45 102.26,201.39 102.33,203.76 102.39,206.12 102.37,209.04 102.34,211.96 102.38,215.81 102.42,219.65 102.23,221.97 102.04,224.29 101.61,226.84 101.17,229.39 99.48,232.58 97.79,235.77 96.63,238.06 95.48,240.34 93.53,243.38 91.58,246.41 89.76,247.57 87.95,248.74 85.74,249.92 83.54,251.10 81.43,251.67 79.31,252.24 77.01,253.46 74.72,254.67 71.69,254.81 68.66,254.96 66.15,254.82 63.65,254.68 61.05,254.36 58.45,254.04 55.78,252.43 53.10,250.83 51.64,248.38 50.18,245.94 49.96,243.32 49.73,240.71 49.22,237.73 48.71,234.75 48.42,230.07 48.12,225.39 48.08,222.64 48.03,219.88 47.57,215.53 47.11,211.18 47.15,208.61 47.19,206.04 47.13,203.71 47.06,201.39 47.11,198.82 47.15,196.25 47.04,192.02 46.93,187.79 46.97,185.40 47.00,183.01 47.02,180.04 47.03,177.07 46.90,174.39 46.77,171.71 46.77,169.37 46.77,167.02 46.66,163.54 46.54,160.06 46.06,156.85 45.59,153.64 45.29,150.77 44.99,147.91 44.26,145.40 43.53,142.90 43.43,140.76 43.33,138.63 41.81,136.93 40.29,135.23 39.18,132.40 38.06,129.58 40.24,129.78 42.41,129.99 41.43,132.04 40.45,134.10 39.27,136.34 38.09,138.58 36.78,141.34 35.47,144.10 35.43,146.56 35.38,149.01 35.35,152.01 35.32,155.00 35.30,157.29 35.28,159.59 35.32,162.97 35.36,166.36 35.37,169.11 35.37,171.86 35.36,174.17 35.35,176.49 35.30,179.19 35.26,181.89 35.23,184.06 35.20,186.23 35.13,188.96 35.05,191.68 35.03,195.24 35.00,198.79 34.62,202.97 34.24,207.16 33.17,209.69 32.10,212.22 30.73,214.53 29.36,216.84 28.48,218.85 27.61,220.86 25.36,224.62 23.12,228.38 20.84,231.11 18.55,233.83 16.76,236.72 14.97,239.61 11.94,241.74 8.91,243.87 5.58,244.40 2.24,244.94 0.07,244.79 -2.10,244.65 -5.50,243.20 -8.91,241.74 -10.68,239.25 -12.45,236.76 -13.68,234.03 -14.92,231.30 -16.30,227.76 -17.68,224.21 -18.80,221.68 -19.92,219.14 -20.76,214.34 -21.61,209.54 -21.64,206.34 -21.66,203.14 -21.66,200.48 -21.65,197.82 -21.54,194.81 -21.44,191.81 -20.92,189.07 -20.40,186.34 -19.59,183.92 -18.78,181.50 -17.63,178.58 -16.47,175.67 -16.43,173.09 -16.39,170.52 -16.34,167.97 -16.29,165.43 -16.22,163.22 -16.16,161.02 -16.13,158.31 -16.11,155.60 -16.07,153.26 -16.04,150.92 -15.99,148.48 -15.94,146.04 -15.98,142.53 -16.01,139.02 -15.91,136.29 -15.80,133.56 -15.71,130.05 -15.62,126.54 -15.54,123.67 -15.47,120.79 -14.61,117.90 -13.75,115.02 -13.55,112.60 -13.35,110.19 -12.58,107.07 -11.81,103.95 -10.92,101.62 -10.04,99.30 -9.10,96.79 -8.17,94.29 -6.75,91.30 -5.34,88.30 -4.84,85.52 -4.34,82.73 -3.28,80.25 -2.21,77.77 -1.53,74.19 -0.84,70.61 -0.42,67.07 -0.00,63.52 0.07,61.03 0.14,58.54 0.18,54.99 0.22,51.43 0.08,48.50 -0.05,45.57 -0.01,42.92 0.01,40.26 0.25,38.05 0.50,35.83 -0.74,31.71 -1.98,27.59 -2.25,23.66 -2.52,19.73 -2.47,17.16 -2.42,14.59 -2.74,11.05 -3.06,7.51 -4.04,4.50 -5.02,1.50 -5.12,0.88 -5.23,0.26 -5.19,-0.36 -5.14,-0.99 -4.95,-1.60 -4.75,-2.20 -4.42,-2.73 -4.09,-3.27 -3.64,-3.71 -3.18,-4.16 -2.64,-4.48 -2.10,-4.80 -1.49,-4.98 -0.88,-5.16 -0.25,-5.19 0.37,-5.22 0.99,-5.10 1.61,-4.98 2.18,-4.72 2.75,-4.45 3.25,-4.06 3.74,-3.66 4.13,-3.16 4.51,-2.66 4.76,-2.08 5.02,-1.50 5.02,-1.50 L 5.02,-1.50 Z"></path></g><g transform="translate(619.5789473684212 278.42105263157896) rotate(0 3.1578947368420245 -21.57894736842104)" stroke="none"><path fill="#1e1e1e" d="M 0,-5.13 Q 0,-5.13 2.42,-5.17 4.84,-5.21 9.54,-5.73 14.24,-6.24 18.12,-7.97 22.00,-9.69 24.32,-10.67 26.63,-11.65 27.05,-14.51 27.47,-17.38 27.41,-19.83 27.35,-22.27 24.27,-24.08 21.18,-25.88 19.25,-27.40 17.32,-28.91 15.15,-29.88 12.99,-30.85 10.86,-32.92 8.73,-34.99 5.65,-35.63 2.57,-36.26 -0.08,-36.28 -2.74,-36.30 -4.99,-36.29 -7.23,-36.27 -7.72,-33.34 -8.21,-30.41 -9.10,-28.07 -9.99,-25.72 -11.38,-22.99 -12.76,-20.27 -15.22,-18.46 -17.67,-16.66 -19.23,-14.58 -20.78,-12.51 -17.14,-11.54 -13.49,-10.57 -9.99,-9.65 -6.49,-8.74 -3.84,-8.42 -1.20,-8.10 0.45,-8.11 2.11,-8.12 3.24,-7.93 4.37,-7.75 5.38,-7.21 6.39,-6.67 7.17,-5.84 7.96,-5.01 8.44,-3.97 8.92,-2.93 9.04,-1.79 9.16,-0.66 8.91,0.45 8.67,1.57 8.07,2.55 7.48,3.53 6.61,4.27 5.74,5.01 4.67,5.43 3.61,5.85 2.47,5.91 1.33,5.97 0.23,5.66 -0.87,5.36 -1.81,4.71 -2.76,4.07 -3.45,3.16 -4.14,2.25 -4.50,1.16 -4.87,0.08 -4.87,-1.06 -4.87,-2.20 -4.50,-3.28 -4.13,-4.37 -3.44,-5.28 -2.75,-6.19 -1.80,-6.83 -0.85,-7.47 0.24,-7.77 1.35,-8.08 2.49,-8.01 3.63,-7.95 4.69,-7.53 5.75,-7.10 6.62,-6.36 7.50,-5.62 8.08,-4.64 8.67,-3.66 8.92,-2.54 9.16,-1.42 9.04,-0.28 8.91,0.84 8.43,1.88 7.95,2.92 7.16,3.75 6.37,4.58 5.36,5.11 4.35,5.65 3.22,5.83 2.09,6.01 2.09,6.01 2.09,6.01 0.42,6.00 -1.24,5.98 -4.16,5.83 -7.08,5.68 -9.33,4.55 -11.58,3.43 -14.15,2.93 -16.71,2.43 -19.89,0.97 -23.06,-0.47 -26.75,-2.15 -30.43,-3.83 -32.21,-8.63 -33.99,-13.43 -32.69,-16.88 -31.40,-20.33 -30.22,-22.70 -29.04,-25.07 -25.96,-27.33 -22.87,-29.60 -21.93,-31.94 -20.99,-34.28 -20.27,-37.17 -19.55,-40.05 -18.14,-42.64 -16.73,-45.23 -14.96,-46.66 -13.19,-48.10 -9.29,-49.08 -5.39,-50.07 -2.99,-50.00 -0.60,-49.94 3.09,-49.92 6.78,-49.91 9.09,-49.67 11.41,-49.43 14.21,-47.79 17.02,-46.16 18.56,-44.28 20.10,-42.41 23.16,-40.31 26.23,-38.22 28.40,-37.62 30.57,-37.03 33.54,-35.42 36.51,-33.82 37.90,-31.15 39.29,-28.47 39.59,-24.62 39.90,-20.77 39.74,-18.62 39.59,-16.48 39.03,-13.40 38.47,-10.33 37.34,-7.57 36.21,-4.81 33.90,-3.23 31.59,-1.66 28.93,-0.86 26.27,-0.06 23.94,0.93 21.61,1.93 18.88,2.87 16.15,3.82 10.50,4.52 4.84,5.21 2.42,5.17 0,5.13 -0.61,5.06 -1.23,4.99 -1.80,4.77 -2.38,4.55 -2.89,4.19 -3.40,3.84 -3.81,3.38 -4.22,2.91 -4.51,2.37 -4.80,1.82 -4.95,1.22 -5.10,0.61 -5.10,-0.00 -5.10,-0.61 -4.95,-1.22 -4.80,-1.82 -4.51,-2.37 -4.22,-2.91 -3.81,-3.38 -3.40,-3.84 -2.89,-4.19 -2.38,-4.55 -1.80,-4.77 -1.22,-4.99 -0.61,-5.06 0.00,-5.13 0.00,-5.13 L 0,-5.13 Z"></path></g><g transform="translate(625.8947368421053 227.89473684210526) rotate(0 -9.4736842105263 16.84210526315792)" stroke="none"><path fill="#f08c00" d="M 0.86,-3.91 Q 0.86,-3.91 3.62,-3.39 6.37,-2.88 10.02,-1.24 13.67,0.39 16.16,1.59 18.64,2.79 20.88,4.32 23.11,5.84 25.67,7.64 28.23,9.43 31.15,13.55 34.07,17.67 37.39,21.92 40.72,26.16 44.48,30.39 48.24,34.63 50.30,36.60 52.37,38.57 54.60,39.08 56.83,39.60 57.44,39.59 58.06,39.58 58.58,39.77 59.11,39.96 59.57,40.28 60.04,40.59 60.42,41.00 60.79,41.42 61.06,41.91 61.33,42.40 61.47,42.94 61.61,43.48 61.62,44.04 61.62,44.60 61.50,45.15 61.37,45.69 61.12,46.19 60.86,46.69 60.50,47.11 60.13,47.54 59.68,47.86 59.22,48.19 58.70,48.39 58.18,48.60 57.63,48.67 57.07,48.75 56.51,48.69 55.96,48.63 53.66,45.84 51.37,43.06 48.86,40.35 46.35,37.64 44.69,35.40 43.02,33.15 39.89,30.24 36.77,27.32 31.53,25.02 26.30,22.71 23.08,21.26 19.85,19.80 17.61,19.03 15.36,18.26 13.30,17.71 11.23,17.17 7.24,14.62 3.25,12.07 0.58,10.17 -2.09,8.27 -5.76,5.18 -9.42,2.09 -11.75,0.29 -14.08,-1.50 -16.42,-3.21 -18.75,-4.92 -19.47,-5.48 -20.20,-6.03 -20.57,-6.47 -20.95,-6.92 -21.22,-7.44 -21.48,-7.96 -21.61,-8.53 -21.74,-9.10 -21.73,-9.68 -21.72,-10.26 -21.57,-10.83 -21.42,-11.39 -21.14,-11.90 -20.86,-12.42 -20.46,-12.85 -20.07,-13.28 -19.58,-13.60 -19.09,-13.92 -18.54,-14.12 -18.00,-14.32 -17.41,-14.38 -16.83,-14.44 -16.26,-14.35 -15.68,-14.27 -15.14,-14.06 -14.60,-13.84 -14.12,-13.50 -13.65,-13.16 -16.23,-13.58 -18.82,-14.00 -16.39,-14.66 -13.96,-15.31 -11.37,-15.13 -8.77,-14.94 -6.25,-14.97 -3.73,-15.01 -2.28,-15.10 -0.83,-15.19 -0.15,-15.09 0.52,-14.99 1.16,-14.73 1.80,-14.47 2.35,-14.07 2.91,-13.66 3.35,-13.14 3.80,-12.61 4.10,-11.99 4.41,-11.38 4.56,-10.71 4.71,-10.03 4.69,-9.35 4.67,-8.66 4.49,-8.00 4.31,-7.33 3.98,-6.73 3.65,-6.13 3.18,-5.63 2.71,-5.12 2.13,-4.74 1.56,-4.37 0.91,-4.14 0.26,-3.91 -0.41,-3.84 -1.10,-3.78 -3.35,-2.85 -5.61,-1.93 -8.50,-0.87 -11.40,0.19 -14.11,1.80 -16.82,3.40 -19.51,5.46 -22.20,7.53 -24.37,9.25 -26.53,10.96 -28.17,12.50 -29.80,14.03 -31.48,15.94 -33.17,17.86 -34.39,19.87 -35.61,21.87 -37.03,24.74 -38.45,27.62 -40.70,30.02 -42.95,32.42 -44.56,34.87 -46.17,37.33 -48.76,39.62 -51.35,41.91 -51.83,42.61 -52.31,43.31 -53.00,43.69 -53.69,44.07 -54.45,44.28 -55.22,44.49 -56.01,44.50 -56.80,44.52 -57.57,44.35 -58.34,44.18 -59.04,43.83 -59.75,43.48 -60.36,42.97 -60.96,42.46 -61.42,41.82 -61.89,41.18 -62.18,40.45 -62.48,39.71 -62.59,38.93 -62.71,38.15 -62.63,37.36 -62.55,36.58 -62.29,35.83 -62.02,35.09 -61.59,34.43 -61.16,33.77 -60.58,33.23 -60.00,32.69 -56.55,29.81 -53.11,26.94 -50.50,25.27 -47.88,23.61 -45.71,22.14 -43.54,20.67 -41.39,19.16 -39.24,17.65 -37.37,16.33 -35.50,15.01 -32.96,13.10 -30.43,11.19 -28.21,9.32 -25.99,7.46 -24.35,5.49 -22.71,3.52 -22.15,3.02 -21.59,2.53 -20.93,2.18 -20.26,1.84 -19.54,1.66 -18.81,1.48 -18.06,1.48 -17.31,1.48 -16.59,1.66 -15.86,1.84 -15.20,2.19 -14.54,2.54 -13.98,3.04 -13.42,3.54 -12.99,4.15 -12.57,4.77 -12.31,5.47 -12.04,6.17 -11.95,6.91 -11.86,7.65 -11.96,8.40 -12.05,9.14 -12.31,9.84 -12.58,10.54 -13.01,11.15 -13.43,11.77 -16.53,14.46 -19.62,17.15 -22.45,19.42 -25.28,21.69 -27.86,23.44 -30.45,25.19 -33.04,26.79 -35.64,28.38 -39.52,29.93 -43.40,31.48 -46.20,33.04 -49.00,34.59 -49.52,35.19 -50.04,35.79 -50.66,35.95 -51.27,36.11 -51.91,36.12 -52.55,36.12 -53.17,35.98 -53.79,35.83 -54.36,35.54 -54.92,35.25 -55.40,34.83 -55.89,34.41 -56.25,33.89 -56.62,33.37 -56.85,32.77 -57.08,32.18 -57.17,31.55 -57.25,30.92 -57.18,30.28 -57.11,29.65 -56.89,29.05 -56.67,28.45 -56.31,27.93 -55.95,27.40 -55.48,26.97 -55.01,26.54 -54.44,26.24 -53.88,25.94 -50.37,22.01 -46.86,18.08 -44.90,16.04 -42.94,13.99 -41.30,12.27 -39.67,10.55 -36.67,7.88 -33.67,5.21 -30.38,2.75 -27.09,0.28 -25.78,-2.01 -24.47,-4.31 -24.04,-4.66 -23.60,-5.01 -23.10,-5.24 -22.59,-5.48 -22.04,-5.59 -21.49,-5.70 -20.94,-5.67 -20.38,-5.64 -19.84,-5.49 -19.31,-5.33 -18.83,-5.04 -18.34,-4.76 -17.94,-4.37 -17.54,-3.98 -17.25,-3.51 -16.95,-3.04 -16.78,-2.50 -16.60,-1.97 -16.56,-1.42 -16.52,-0.86 -16.61,-0.31 -16.71,0.23 -16.93,0.74 -17.15,1.26 -17.49,1.70 -17.83,2.15 -20.39,3.74 -22.96,5.34 -24.96,7.31 -26.97,9.28 -30.80,11.79 -34.63,14.30 -37.61,16.49 -40.59,18.69 -45.02,21.67 -49.46,24.65 -54.18,27.43 -58.89,30.21 -63.02,32.56 -67.15,34.91 -69.56,36.21 -71.97,37.50 -73.62,38.44 -75.26,39.37 -75.87,39.53 -76.49,39.68 -77.12,39.64 -77.75,39.59 -78.33,39.35 -78.92,39.10 -79.39,38.68 -79.87,38.26 -80.18,37.71 -80.50,37.17 -80.63,36.54 -80.75,35.92 -80.67,35.30 -80.59,34.67 -80.31,34.10 -80.04,33.53 -79.59,33.08 -79.15,32.62 -78.58,32.34 -78.02,32.05 -77.39,31.96 -76.76,31.87 -76.14,31.98 -75.52,32.10 -74.96,32.40 -74.41,32.71 -73.98,33.18 -73.56,33.65 -73.30,34.23 -73.04,34.81 -72.99,35.44 -72.93,36.07 -73.08,36.69 -73.23,37.30 -73.56,37.84 -73.90,38.38 -74.39,38.78 -74.88,39.18 -75.47,39.40 -76.07,39.62 -76.70,39.65 -77.33,39.67 -77.94,39.49 -78.55,39.31 -79.07,38.94 -79.58,38.58 -79.96,38.06 -80.33,37.55 -80.52,36.95 -80.71,36.35 -80.70,35.71 -80.69,35.08 -80.48,34.48 -80.26,33.89 -79.87,33.39 -79.48,32.89 -78.95,32.55 -78.41,32.20 -78.41,32.20 -78.42,32.20 -76.62,31.62 -74.82,31.04 -72.58,30.28 -70.34,29.53 -66.37,27.06 -62.39,24.58 -58.01,21.72 -53.63,18.85 -49.49,15.66 -45.34,12.47 -42.37,10.12 -39.39,7.76 -36.34,5.26 -33.29,2.76 -28.88,-0.77 -24.47,-4.31 -24.04,-4.66 -23.60,-5.01 -23.10,-5.24 -22.59,-5.48 -22.04,-5.59 -21.49,-5.70 -20.94,-5.67 -20.38,-5.64 -19.84,-5.49 -19.31,-5.33 -18.83,-5.04 -18.34,-4.76 -17.94,-4.37 -17.54,-3.98 -17.25,-3.51 -16.95,-3.04 -16.78,-2.51 -16.60,-1.97 -16.56,-1.42 -16.52,-0.86 -16.61,-0.31 -16.71,0.23 -16.93,0.74 -17.15,1.26 -17.49,1.70 -17.83,2.14 -17.83,2.49 -17.82,2.83 -19.83,4.84 -21.83,6.84 -24.58,9.21 -27.33,11.57 -30.00,14.57 -32.67,17.57 -34.41,19.20 -36.15,20.84 -37.85,22.42 -39.55,24.01 -42.21,27.86 -44.87,31.70 -47.46,33.75 -50.04,35.79 -50.66,35.95 -51.27,36.11 -51.91,36.12 -52.55,36.12 -53.17,35.98 -53.79,35.83 -54.36,35.54 -54.92,35.25 -55.40,34.83 -55.89,34.41 -56.25,33.89 -56.62,33.37 -56.85,32.78 -57.08,32.18 -57.17,31.55 -57.25,30.92 -57.18,30.28 -57.11,29.65 -56.89,29.05 -56.67,28.45 -56.31,27.93 -55.95,27.40 -55.48,26.97 -55.01,26.54 -54.44,26.24 -53.88,25.94 -52.60,25.33 -51.32,24.72 -49.33,23.75 -47.35,22.79 -44.27,21.19 -41.18,19.58 -38.79,18.02 -36.40,16.46 -34.36,15.06 -32.33,13.67 -29.98,11.38 -27.64,9.09 -25.17,6.30 -22.71,3.52 -22.15,3.03 -21.59,2.53 -20.93,2.18 -20.26,1.84 -19.54,1.66 -18.81,1.48 -18.06,1.48 -17.31,1.48 -16.59,1.66 -15.86,1.84 -15.20,2.19 -14.54,2.54 -13.98,3.04 -13.42,3.54 -12.99,4.15 -12.57,4.77 -12.31,5.47 -12.04,6.17 -11.95,6.91 -11.86,7.65 -11.96,8.40 -12.05,9.14 -12.31,9.84 -12.58,10.54 -13.01,11.15 -13.43,11.77 -14.30,12.64 -15.16,13.51 -16.83,15.29 -18.50,17.07 -20.80,18.84 -23.10,20.61 -25.96,22.58 -28.81,24.54 -30.58,25.78 -32.35,27.01 -34.49,28.65 -36.63,30.30 -38.85,31.98 -41.07,33.66 -43.10,35.14 -45.13,36.63 -46.81,38.09 -48.49,39.55 -50.40,41.43 -52.31,43.31 -53.00,43.69 -53.69,44.07 -54.45,44.28 -55.22,44.49 -56.00,44.50 -56.79,44.52 -57.57,44.35 -58.34,44.18 -59.04,43.83 -59.75,43.48 -60.36,42.97 -60.96,42.46 -61.42,41.82 -61.89,41.18 -62.18,40.45 -62.48,39.71 -62.59,38.93 -62.71,38.15 -62.63,37.37 -62.55,36.58 -62.29,35.83 -62.03,35.09 -61.59,34.43 -61.16,33.77 -60.58,33.23 -60.00,32.70 -58.81,31.65 -57.63,30.60 -55.25,28.30 -52.87,25.99 -50.34,23.34 -47.80,20.69 -46.30,18.44 -44.80,16.19 -43.45,14.04 -42.10,11.90 -39.27,9.20 -36.44,6.51 -34.47,4.85 -32.50,3.20 -30.46,1.68 -28.42,0.17 -25.49,-2.51 -22.55,-5.20 -19.15,-7.65 -15.75,-10.11 -12.81,-11.49 -9.87,-12.86 -7.88,-13.61 -5.88,-14.36 -3.36,-14.77 -0.83,-15.19 -0.15,-15.09 0.52,-14.99 1.16,-14.73 1.80,-14.47 2.35,-14.07 2.91,-13.66 3.35,-13.14 3.80,-12.61 4.10,-12.00 4.41,-11.38 4.56,-10.71 4.71,-10.04 4.69,-9.35 4.67,-8.66 4.49,-8.00 4.31,-7.33 3.98,-6.73 3.65,-6.13 3.18,-5.63 2.71,-5.12 2.13,-4.74 1.56,-4.37 0.91,-4.14 0.26,-3.91 -0.41,-3.84 -1.10,-3.78 -1.75,-3.84 -2.41,-3.90 -4.60,-4.11 -6.80,-4.33 -10.26,-5.29 -13.72,-6.26 -16.96,-6.14 -20.19,-6.03 -20.57,-6.47 -20.95,-6.92 -21.21,-7.44 -21.48,-7.96 -21.61,-8.53 -21.74,-9.10 -21.73,-9.68 -21.72,-10.26 -21.57,-10.83 -21.42,-11.39 -21.14,-11.90 -20.86,-12.42 -20.46,-12.85 -20.07,-13.28 -19.58,-13.60 -19.09,-13.92 -18.54,-14.12 -18.00,-14.32 -17.42,-14.38 -16.83,-14.44 -16.26,-14.35 -15.68,-14.27 -15.14,-14.06 -14.60,-13.84 -14.12,-13.50 -13.65,-13.16 -13.06,-12.46 -12.47,-11.76 -10.66,-9.79 -8.85,-7.81 -6.77,-5.95 -4.69,-4.09 -0.82,-1.41 3.04,1.26 5.28,2.96 7.53,4.67 10.84,6.33 14.15,7.99 16.44,8.80 18.73,9.61 21.03,10.61 23.34,11.61 26.56,12.90 29.78,14.18 36.86,16.91 43.93,19.63 45.62,21.33 47.30,23.03 50.37,26.77 53.44,30.50 55.44,32.64 57.45,34.77 57.75,37.18 58.06,39.58 58.58,39.77 59.11,39.96 59.57,40.28 60.04,40.59 60.42,41.00 60.79,41.41 61.06,41.91 61.33,42.40 61.47,42.94 61.61,43.48 61.62,44.04 61.62,44.60 61.50,45.15 61.37,45.69 61.12,46.19 60.86,46.69 60.50,47.11 60.13,47.54 59.68,47.86 59.22,48.19 58.70,48.39 58.18,48.60 57.63,48.67 57.07,48.75 56.51,48.69 55.96,48.63 55.38,48.48 54.80,48.34 52.65,47.34 50.49,46.33 48.78,44.99 47.06,43.66 45.18,41.44 43.30,39.23 39.22,35.04 35.13,30.86 31.38,26.68 27.63,22.51 25.30,19.63 22.97,16.76 18.76,13.58 14.55,10.41 12.43,9.15 10.32,7.89 7.41,6.60 4.51,5.30 1.82,4.60 -0.86,3.91 -1.32,3.74 -1.77,3.58 -2.18,3.32 -2.58,3.05 -2.91,2.70 -3.24,2.35 -3.47,1.92 -3.71,1.50 -3.83,1.03 -3.96,0.57 -3.97,0.09 -3.98,-0.39 -3.88,-0.86 -3.77,-1.33 -3.56,-1.76 -3.34,-2.19 -3.03,-2.56 -2.72,-2.93 -2.33,-3.21 -1.94,-3.50 -1.49,-3.68 -1.04,-3.86 -0.56,-3.93 -0.09,-4.00 0.38,-3.95 0.86,-3.91 0.86,-3.91 L 0.86,-3.91 Z"></path></g><g transform="translate(248.00000000000003 10) rotate(0 80.52631578947368 35.26315789473685)" stroke="none"><path d="M-2.18 0.35 C-2.4 12.26, -28.34 61.24, -1.45 72.78 C25.43 84.32, 132.73 71.33, 159.14 69.58 C185.55 67.84, 157.26 72.41, 157 62.33 C156.73 52.25, 160.18 18.51, 157.54 9.09 C154.89 -0.32, 144.89 6.89, 141.12 5.85 C137.35 4.8, 157.34 3.65, 134.93 2.84 C112.52 2.03, 28.47 1.03, 6.64 1.01" stroke="none" stroke-width="0" fill="#ffec99" fill-rule="evenodd"></path><path fill="#1e1e1e" d="M 4.55,0 Q 4.55,0 4.29,5.75 4.04,11.5 3.85,16.36 3.66,21.22 3.73,24.50 3.80,27.78 3.86,30.99 3.93,34.20 3.87,37.98 3.81,41.77 3.97,43.98 4.13,46.20 4.27,48.35 4.41,50.50 4.65,54.00 4.90,57.51 5.08,59.69 5.26,61.88 5.31,64.06 5.36,66.24 9.05,65.62 12.74,65.01 15.74,65.09 18.73,65.18 22.72,65.46 26.72,65.74 30.53,65.90 34.35,66.07 39.30,66.31 44.25,66.55 51.50,66.73 58.75,66.91 64.25,67.05 69.76,67.18 73.00,67.07 76.25,66.96 82.47,67.09 88.69,67.21 93.46,67.31 98.22,67.40 105.08,67.47 111.95,67.53 118.20,67.58 124.44,67.63 129.52,67.67 134.60,67.70 138.27,67.61 141.94,67.51 145.31,67.38 148.69,67.25 152.68,66.88 156.67,66.50 157.93,66.35 159.19,66.21 159.70,66.27 160.22,66.33 160.71,66.52 161.19,66.70 161.62,67.00 162.05,67.29 162.39,67.68 162.74,68.07 162.98,68.53 163.22,68.99 163.35,69.50 163.47,70.00 163.47,70.52 163.47,71.04 163.35,71.55 163.22,72.05 162.98,72.51 162.74,72.97 162.39,73.36 162.05,73.75 161.62,74.05 161.19,74.34 160.70,74.53 160.22,74.71 159.70,74.77 159.19,74.84 156.97,70.33 154.76,65.81 154.40,59.85 154.04,53.89 154.03,50.20 154.01,46.51 154.17,42.22 154.32,37.92 154.17,35.19 154.01,32.46 153.70,28.91 153.39,25.35 153.16,22.68 152.92,20.01 152.76,16.21 152.59,12.40 148.78,12.36 144.97,12.32 141.29,11.42 137.61,10.51 135.20,10.25 132.80,9.98 130.61,9.90 128.42,9.81 125.71,9.73 122.99,9.64 117.91,9.27 112.82,8.91 109.13,8.77 105.44,8.64 102.06,8.60 98.68,8.57 94.82,8.44 90.96,8.31 87.81,8.35 84.65,8.39 81.30,8.11 77.94,7.82 68.00,7.49 58.06,7.16 52.26,6.94 46.45,6.73 42.77,6.72 39.10,6.71 36.63,6.87 34.16,7.04 31.00,7.10 27.83,7.15 25.58,7.30 23.32,7.44 20.55,7.51 17.78,7.59 13.90,7.82 10.02,8.05 7.64,8.11 5.26,8.18 4.46,8.05 3.65,7.92 2.93,7.53 2.22,7.15 1.66,6.56 1.10,5.97 0.76,5.23 0.42,4.50 0.33,3.69 0.24,2.88 0.41,2.09 0.59,1.29 1.01,0.60 1.43,-0.09 2.05,-0.62 2.67,-1.14 3.42,-1.44 4.18,-1.75 4.99,-1.79 5.80,-1.83 6.59,-1.62 7.37,-1.40 8.04,-0.94 8.71,-0.49 9.21,0.15 9.70,0.80 9.96,1.57 10.22,2.34 10.22,3.15 10.22,3.97 9.96,4.74 9.70,5.51 9.21,6.15 8.71,6.80 8.04,7.26 7.37,7.71 6.58,7.93 5.80,8.15 4.99,8.10 4.18,8.06 3.42,7.76 2.67,7.46 2.05,6.93 1.43,6.41 1.01,5.71 0.59,5.01 0.41,4.22 0.24,3.42 0.33,2.62 0.42,1.81 0.76,1.07 1.10,0.33 1.66,-0.25 2.22,-0.84 2.94,-1.22 3.66,-1.60 4.46,-1.73 5.26,-1.86 5.26,-1.86 5.26,-1.86 7.64,-1.80 10.02,-1.73 13.90,-1.50 17.78,-1.27 20.56,-1.19 23.33,-1.12 25.59,-0.97 27.84,-0.83 31.02,-0.76 34.19,-0.69 36.67,-0.51 39.14,-0.33 42.83,-0.29 46.52,-0.25 52.34,-0.36 58.16,-0.46 68.45,-0.54 78.75,-0.61 81.70,-0.29 84.66,0.02 87.81,0.06 90.97,0.11 94.83,-0.01 98.69,-0.13 102.08,-0.16 105.46,-0.19 109.16,-0.31 112.86,-0.42 118.03,-0.74 123.19,-1.07 126.09,-1.05 129.00,-1.03 131.48,-0.87 133.96,-0.71 136.85,-0.39 139.74,-0.08 142.81,0.37 145.88,0.82 150.02,1.48 154.15,2.14 157.28,3.30 160.40,4.46 161.79,8.43 163.19,12.40 163.02,16.20 162.86,20.01 162.63,22.67 162.40,25.34 162.10,28.88 161.80,32.43 161.67,35.15 161.54,37.87 161.74,42.13 161.94,46.38 162.05,50.01 162.15,53.63 162.51,57.57 162.86,61.51 161.02,63.86 159.19,66.21 159.70,66.27 160.22,66.33 160.70,66.52 161.19,66.70 161.62,67.00 162.05,67.29 162.39,67.68 162.74,68.07 162.98,68.53 163.22,68.99 163.35,69.50 163.47,70.00 163.47,70.52 163.47,71.04 163.35,71.55 163.22,72.05 162.98,72.51 162.74,72.97 162.39,73.36 162.05,73.75 161.62,74.05 161.19,74.34 160.71,74.53 160.22,74.71 159.70,74.77 159.19,74.84 157.93,74.69 156.67,74.54 152.68,74.17 148.69,73.79 145.31,73.66 141.94,73.54 138.27,73.44 134.60,73.34 129.52,73.37 124.44,73.41 118.20,73.46 111.95,73.51 105.08,73.58 98.22,73.64 93.45,73.74 88.69,73.83 82.47,73.95 76.25,74.08 73.00,73.97 69.76,73.86 64.25,74.00 58.75,74.13 51.50,74.31 44.25,74.48 39.30,74.72 34.34,74.96 30.52,75.12 26.70,75.28 22.69,75.55 18.67,75.81 15.64,75.87 12.62,75.92 7.48,75.89 2.34,75.87 -0.24,74.72 -2.82,73.56 -4.09,69.90 -5.36,66.24 -5.31,64.06 -5.26,61.88 -5.08,59.69 -4.90,57.51 -4.65,54.00 -4.41,50.50 -4.27,48.35 -4.13,46.20 -3.97,43.98 -3.81,41.77 -3.87,37.98 -3.93,34.20 -3.86,30.99 -3.80,27.78 -3.73,24.50 -3.66,21.22 -3.85,16.36 -4.04,11.5 -4.29,5.75 -4.55,0 -4.48,-0.54 -4.41,-1.08 -4.22,-1.60 -4.03,-2.11 -3.71,-2.56 -3.40,-3.01 -2.99,-3.38 -2.58,-3.74 -2.09,-4.00 -1.61,-4.25 -1.08,-4.38 -0.54,-4.51 0.00,-4.51 0.54,-4.51 1.08,-4.38 1.61,-4.25 2.10,-4.00 2.58,-3.74 2.99,-3.38 3.40,-3.01 3.71,-2.56 4.03,-2.11 4.22,-1.60 4.42,-1.08 4.48,-0.54 4.55,0.00 4.55,0.00 L 4.55,0 Z"></path></g><g transform="translate(399.5789473684211 25.78947368421052) rotate(0 -73.6842105263158 8.421052631578945)" stroke="none"><path fill="#1e1e1e" d="M 0,4.96 Q 0,4.96 -2.42,5.02 -4.84,5.07 -8.98,5.18 -13.13,5.29 -16.24,5.42 -19.36,5.56 -23.58,5.60 -27.81,5.63 -30.51,6.06 -33.21,6.49 -35.83,7.23 -38.44,7.97 -40.88,9.07 -43.31,10.16 -45.90,11.58 -48.49,13.00 -51.72,14.90 -54.95,16.80 -58.09,18.45 -61.23,20.10 -64.21,22.13 -67.19,24.16 -69.06,25.55 -70.93,26.94 -73.69,27.58 -76.45,28.22 -79.77,27.84 -83.09,27.46 -86.28,26.10 -89.48,24.75 -91.41,23.72 -93.35,22.68 -95.52,22.14 -97.69,21.59 -100.15,21.03 -102.60,20.46 -105.16,19.49 -107.72,18.52 -110.26,17.44 -112.80,16.37 -116.94,15.01 -121.08,13.65 -124.26,12.12 -127.45,10.58 -129.60,9.96 -131.75,9.34 -134.13,7.69 -136.52,6.05 -138.04,4.56 -139.57,3.07 -142.22,1.99 -144.87,0.92 -146.43,0.73 -148.00,0.54 -149.08,0.26 -150.15,-0.01 -151.09,-0.62 -152.02,-1.24 -152.71,-2.11 -153.40,-2.99 -153.77,-4.04 -154.14,-5.09 -154.16,-6.20 -154.18,-7.32 -153.84,-8.38 -153.50,-9.44 -152.84,-10.34 -152.18,-11.23 -151.27,-11.87 -150.36,-12.51 -149.29,-12.83 -148.22,-13.14 -147.10,-13.10 -145.99,-13.06 -144.95,-12.66 -143.91,-12.27 -143.05,-11.56 -142.19,-10.85 -141.60,-9.91 -141.01,-8.96 -140.75,-7.88 -140.49,-6.79 -140.60,-5.68 -140.70,-4.57 -141.15,-3.56 -141.60,-2.54 -142.36,-1.72 -143.11,-0.90 -144.08,-0.36 -145.06,0.17 -146.16,0.37 -147.25,0.57 -148.36,0.40 -149.46,0.24 -150.45,-0.26 -151.44,-0.76 -152.22,-1.56 -153.00,-2.36 -153.49,-3.36 -153.97,-4.36 -154.11,-5.47 -154.25,-6.57 -154.02,-7.67 -153.80,-8.76 -153.24,-9.72 -152.68,-10.69 -151.85,-11.42 -151.01,-12.15 -149.98,-12.58 -148.95,-13.01 -147.84,-13.09 -146.73,-13.17 -146.73,-13.17 -146.73,-13.17 -144.24,-12.77 -141.74,-12.38 -138.89,-11.20 -136.03,-10.01 -132.63,-7.98 -129.22,-5.96 -126.94,-4.11 -124.65,-2.26 -122.31,-0.99 -119.98,0.27 -117.86,0.76 -115.73,1.26 -113.25,2.18 -110.77,3.11 -107.15,4.44 -103.53,5.77 -100.90,6.90 -98.28,8.04 -96.04,8.63 -93.80,9.23 -90.52,10.34 -87.25,11.45 -84.26,12.86 -81.28,14.27 -78.45,15.51 -75.61,16.75 -73.34,15.11 -71.08,13.46 -69.01,11.99 -66.94,10.52 -64.21,8.68 -61.49,6.84 -59.27,5.39 -57.06,3.95 -54.26,2.66 -51.45,1.37 -48.98,0.44 -46.50,-0.48 -43.99,-1.29 -41.48,-2.10 -38.35,-3.08 -35.22,-4.07 -31.53,-4.85 -27.84,-5.63 -23.60,-5.60 -19.36,-5.56 -16.24,-5.42 -13.13,-5.29 -8.98,-5.18 -4.84,-5.07 -2.42,-5.02 0,-4.96 0.59,-4.89 1.18,-4.82 1.74,-4.61 2.30,-4.40 2.80,-4.05 3.29,-3.71 3.69,-3.27 4.08,-2.82 4.36,-2.29 4.64,-1.76 4.78,-1.18 4.93,-0.59 4.93,0.00 4.93,0.59 4.78,1.18 4.64,1.76 4.36,2.29 4.08,2.82 3.69,3.27 3.29,3.71 2.80,4.06 2.30,4.40 1.74,4.61 1.18,4.82 0.59,4.89 -0.00,4.96 -0.00,4.96 L 0,4.96 Z"></path></g><g transform="translate(455.3684210526316 56.31578947368422) rotate(0 19.47368421052633 -16.84210526315789)" stroke="none"><path fill="#1e1e1e" d="M -4.49,-0.40 Q -4.49,-0.40 -3.64,-7.04 -2.78,-13.67 -2.47,-17.36 -2.16,-21.05 -1.88,-25.58 -1.60,-30.10 -1.74,-32.36 -1.87,-34.62 -1.95,-35.29 -2.04,-35.95 -1.97,-36.44 -1.90,-36.93 -1.71,-37.39 -1.53,-37.85 -1.23,-38.25 -0.94,-38.66 -0.57,-38.98 -0.19,-39.30 0.25,-39.52 0.69,-39.74 1.17,-39.85 1.66,-39.96 2.16,-39.95 2.65,-39.94 3.13,-39.81 3.61,-39.68 4.04,-39.44 4.48,-39.20 4.84,-38.87 5.21,-38.53 5.48,-38.11 5.76,-37.70 5.92,-37.23 6.09,-36.77 6.14,-36.27 6.19,-35.78 6.76,-33.70 7.34,-31.62 10.21,-30.65 13.08,-29.69 15.64,-27.18 18.20,-24.68 19.58,-22.13 20.96,-19.58 21.17,-16.42 21.38,-13.27 21.43,-10.99 21.48,-8.71 17.34,-8.34 13.20,-7.98 12.52,-11.40 11.85,-14.82 11.92,-17.52 12.00,-20.22 11.92,-23.32 11.84,-26.42 12.06,-28.68 12.28,-30.93 13.38,-32.87 14.48,-34.82 17.07,-35.80 19.65,-36.79 21.90,-36.47 24.15,-36.14 27.64,-32.88 31.14,-29.62 32.68,-27.53 34.23,-25.43 35.48,-22.82 36.74,-20.21 37.31,-17.96 37.88,-15.70 39.28,-12.04 40.69,-8.38 41.57,-4.78 42.45,-1.17 43.37,-0.03 44.30,1.10 44.65,2.04 45.01,2.98 45.05,3.98 45.08,4.98 44.80,5.94 44.51,6.90 43.94,7.72 43.36,8.54 42.56,9.13 41.75,9.72 40.79,10.03 39.84,10.33 38.84,10.31 37.84,10.29 36.89,9.96 35.95,9.62 35.16,9.00 34.38,8.38 33.83,7.55 33.28,6.71 33.03,5.74 32.78,4.77 32.85,3.77 32.92,2.77 33.31,1.85 33.69,0.93 34.36,0.17 35.02,-0.57 35.88,-1.07 36.75,-1.57 37.73,-1.77 38.71,-1.97 39.71,-1.84 40.70,-1.72 41.60,-1.28 42.50,-0.85 43.22,-0.15 43.93,0.54 44.39,1.44 44.84,2.33 44.99,3.32 45.13,4.31 44.95,5.30 44.77,6.28 44.29,7.16 43.80,8.03 43.07,8.71 42.33,9.39 41.41,9.79 40.50,10.20 39.50,10.29 38.50,10.38 37.53,10.15 36.55,9.91 35.70,9.38 34.86,8.85 34.22,8.08 33.59,7.30 33.59,7.31 33.59,7.31 31.90,3.00 30.21,-1.30 29.38,-4.96 28.55,-8.61 27.38,-10.65 26.21,-12.69 25.39,-15.43 24.57,-18.17 23.17,-19.95 21.77,-21.73 22.86,-24.07 23.94,-26.41 23.85,-23.30 23.77,-20.19 23.83,-17.48 23.90,-14.77 23.93,-10.14 23.96,-5.51 22.73,-2.45 21.51,0.61 16.29,-1.08 11.06,-2.79 10.52,-5.61 9.97,-8.43 9.93,-10.62 9.90,-12.81 9.79,-15.23 9.68,-17.65 7.42,-20.26 5.16,-22.86 3.37,-24.04 1.58,-25.22 0.07,-28.32 -1.43,-31.42 -1.73,-33.68 -2.04,-35.95 -1.97,-36.44 -1.90,-36.93 -1.71,-37.39 -1.53,-37.85 -1.24,-38.25 -0.94,-38.66 -0.57,-38.98 -0.19,-39.30 0.25,-39.52 0.69,-39.74 1.17,-39.85 1.66,-39.96 2.15,-39.95 2.65,-39.94 3.13,-39.81 3.61,-39.68 4.04,-39.44 4.48,-39.20 4.84,-38.87 5.21,-38.53 5.48,-38.11 5.76,-37.70 5.92,-37.23 6.09,-36.77 6.14,-36.27 6.19,-35.78 6.07,-35.12 5.95,-34.46 5.72,-32.20 5.49,-29.93 5.55,-25.22 5.61,-20.52 5.40,-16.73 5.20,-12.95 4.85,-6.27 4.49,0.40 4.37,0.94 4.26,1.47 4.02,1.96 3.78,2.44 3.43,2.86 3.09,3.28 2.65,3.60 2.21,3.92 1.71,4.13 1.21,4.34 0.67,4.42 0.13,4.50 -0.40,4.45 -0.94,4.41 -1.46,4.23 -1.97,4.05 -2.43,3.76 -2.88,3.46 -3.26,3.06 -3.63,2.67 -3.90,2.19 -4.16,1.72 -4.31,1.20 -4.45,0.67 -4.47,0.13 -4.49,-0.40 -4.49,-0.40 L -4.49,-0.40 Z"></path></g><g transform="translate(27.313443406949943 763.5008589730239) rotate(0 17.619527134605732 -74.21558399121801)" stroke="none"><path fill="#1e1e1e" d="M -3.49,0 Q -3.49,0 -3.61,-3.07 -3.72,-6.14 -3.84,-8.97 -3.96,-11.81 -4.07,-14.56 -4.18,-17.30 -4.06,-21.23 -3.93,-25.16 -3.76,-30.20 -3.58,-35.25 -2.83,-41.55 -2.08,-47.85 -1.11,-56.89 -0.14,-65.93 0.29,-72.78 0.72,-79.63 1.24,-85.67 1.76,-91.71 1.99,-98.80 2.22,-105.88 2.26,-109.84 2.31,-113.80 2.18,-117.00 2.06,-120.21 1.87,-122.49 1.67,-124.78 1.82,-129.12 1.96,-133.46 1.93,-137.15 1.91,-140.84 2.70,-145.30 3.50,-149.75 7.19,-150.44 10.88,-151.13 14.01,-149.57 17.15,-148.02 21.20,-143.49 25.25,-138.96 28.22,-135.61 31.19,-132.27 33.35,-128.29 35.51,-124.32 36.40,-118.88 37.28,-113.44 37.14,-109.74 36.99,-106.04 35.15,-99.21 33.30,-92.39 25.96,-86.05 18.61,-79.72 15.32,-77.23 12.03,-74.75 9.92,-73.37 7.81,-72.00 5.16,-70.97 2.52,-69.94 2.28,-69.77 2.05,-69.59 1.53,-69.55 1.02,-69.51 0.51,-69.59 0.00,-69.67 -0.47,-69.87 -0.95,-70.08 -1.36,-70.39 -1.77,-70.70 -2.10,-71.10 -2.43,-71.50 -2.65,-71.97 -2.87,-72.44 -2.98,-72.94 -3.08,-73.45 -3.06,-73.97 -3.04,-74.48 -2.89,-74.98 -2.75,-75.48 -2.49,-75.93 -2.23,-76.37 -1.87,-76.75 -1.52,-77.12 -1.08,-77.40 -0.64,-77.67 -0.15,-77.84 0.33,-78.00 2.80,-77.34 5.27,-76.67 10.08,-74.07 14.88,-71.47 17.79,-68.14 20.70,-64.80 22.07,-63.17 23.44,-61.54 24.53,-59.64 25.63,-57.74 26.10,-53.52 26.57,-49.29 27.05,-43.90 27.53,-38.52 27.95,-35.87 28.38,-33.22 28.31,-30.16 28.23,-27.11 27.50,-23.78 26.78,-20.45 25.30,-16.35 23.83,-12.25 23.07,-10.00 22.32,-7.75 20.82,-5.02 19.31,-2.30 18.74,-1.85 18.17,-1.40 17.49,-1.16 16.80,-0.92 16.08,-0.91 15.35,-0.90 14.66,-1.12 13.97,-1.34 13.38,-1.77 12.80,-2.20 12.38,-2.80 11.97,-3.39 11.76,-4.09 11.56,-4.79 11.59,-5.51 11.62,-6.24 11.88,-6.91 12.14,-7.59 12.60,-8.15 13.06,-8.71 13.68,-9.10 14.29,-9.48 15.00,-9.64 15.71,-9.81 16.43,-9.74 17.15,-9.67 17.82,-9.38 18.48,-9.08 19.01,-8.59 19.55,-8.10 19.90,-7.46 20.24,-6.83 20.37,-6.11 20.50,-5.40 20.39,-4.68 20.28,-3.96 19.95,-3.32 19.62,-2.67 19.10,-2.16 18.58,-1.66 17.93,-1.34 17.27,-1.03 16.55,-0.94 15.83,-0.85 15.12,-1.00 14.41,-1.14 13.78,-1.51 13.16,-1.87 12.68,-2.42 12.20,-2.97 11.92,-3.64 11.64,-4.31 11.59,-5.03 11.55,-5.76 11.73,-6.46 11.91,-7.16 12.31,-7.77 12.71,-8.37 12.71,-8.37 12.71,-8.37 14.38,-11.48 16.06,-14.59 17.00,-18.54 17.95,-22.49 18.60,-25.10 19.25,-27.70 19.52,-29.95 19.78,-32.19 19.57,-34.79 19.35,-37.38 18.32,-42.89 17.29,-48.40 17.10,-51.03 16.91,-53.67 15.60,-56.32 14.30,-58.98 11.99,-61.37 9.68,-63.76 7.49,-65.25 5.30,-66.74 3.68,-68.17 2.05,-69.59 1.53,-69.55 1.02,-69.51 0.51,-69.59 0.00,-69.67 -0.47,-69.87 -0.95,-70.08 -1.36,-70.39 -1.77,-70.70 -2.10,-71.10 -2.43,-71.50 -2.65,-71.97 -2.87,-72.44 -2.98,-72.94 -3.08,-73.45 -3.06,-73.97 -3.04,-74.48 -2.89,-74.98 -2.75,-75.48 -2.49,-75.93 -2.23,-76.37 -1.87,-76.75 -1.52,-77.12 -1.08,-77.40 -0.64,-77.67 -0.15,-77.84 0.33,-78.00 1.19,-78.08 2.04,-78.16 5.08,-79.02 8.11,-79.88 11.22,-82.32 14.33,-84.76 20.61,-90.00 26.90,-95.25 28.44,-100.92 29.98,-106.60 30.36,-109.49 30.75,-112.38 29.98,-116.69 29.22,-120.99 27.49,-124.04 25.77,-127.09 22.49,-130.17 19.22,-133.24 13.98,-137.04 8.75,-140.83 8.72,-137.14 8.69,-133.45 8.82,-129.09 8.95,-124.73 8.73,-122.43 8.50,-120.14 8.31,-116.91 8.11,-113.67 7.99,-109.70 7.86,-105.73 7.70,-98.50 7.53,-91.26 7.12,-85.29 6.71,-79.31 6.40,-72.32 6.10,-65.33 5.32,-56.26 4.53,-47.19 4.06,-41.22 3.58,-35.25 3.76,-30.20 3.93,-25.16 4.06,-21.23 4.18,-17.30 4.07,-14.56 3.96,-11.81 3.84,-8.97 3.72,-6.14 3.61,-3.07 3.49,0 3.44,0.41 3.39,0.83 3.24,1.23 3.09,1.62 2.85,1.97 2.61,2.31 2.30,2.59 1.98,2.87 1.61,3.07 1.23,3.26 0.83,3.36 0.42,3.47 -0.00,3.47 -0.42,3.47 -0.83,3.36 -1.23,3.26 -1.61,3.07 -1.98,2.87 -2.30,2.59 -2.61,2.31 -2.85,1.97 -3.09,1.62 -3.24,1.23 -3.39,0.83 -3.44,0.41 -3.49,-0.00 -3.49,-0.00 L -3.49,0 Z"></path></g><g transform="translate(120.21640466214373 632.1552930605086) rotate(0 1.6017751940550653 65.6727829562576)" stroke="none"><path fill="#1e1e1e" d="M 2.81,2.10 Q 2.81,2.10 1.08,4.58 -0.64,7.07 -1.90,11.48 -3.16,15.90 -4.46,19.89 -5.76,23.89 -6.42,26.57 -7.08,29.25 -9.11,34.39 -11.15,39.53 -11.79,42.49 -12.43,45.45 -13.48,51.47 -14.52,57.50 -15.64,63.54 -16.75,69.57 -17.87,75.50 -18.99,81.44 -19.43,85.40 -19.87,89.36 -19.87,92.26 -19.87,95.15 -19.87,98.49 -19.86,101.82 -18.03,107.79 -16.19,113.76 -13.94,117.23 -11.69,120.71 -10.19,122.45 -8.68,124.19 -5.14,126.28 -1.60,128.37 1.06,128.92 3.74,129.47 8.11,129.94 12.49,130.41 14.68,130.55 16.86,130.69 18.62,126.26 20.38,121.83 20.73,118.71 21.08,115.58 21.74,111.41 22.39,107.24 22.72,103.13 23.05,99.01 22.93,94.91 22.81,90.81 22.19,86.39 21.56,81.96 21.30,75.88 21.04,69.79 19.44,62.27 17.84,54.75 16.57,50.32 15.30,45.89 14.43,41.39 13.55,36.90 12.47,33.65 11.38,30.41 10.21,27.93 9.05,25.45 7.89,22.09 6.74,18.74 5.42,15.29 4.09,11.83 2.81,9.22 1.53,6.61 -0.46,3.90 -2.47,1.19 -3.58,1.14 -4.70,1.09 -5.34,0.74 -5.99,0.39 -6.49,-0.14 -6.99,-0.68 -7.29,-1.36 -7.60,-2.03 -7.67,-2.76 -7.74,-3.49 -7.57,-4.21 -7.41,-4.93 -7.02,-5.55 -6.64,-6.18 -6.07,-6.65 -5.50,-7.12 -4.82,-7.39 -4.13,-7.65 -3.39,-7.68 -2.66,-7.72 -1.95,-7.51 -1.25,-7.31 -0.64,-6.89 -0.04,-6.47 0.39,-5.88 0.83,-5.29 1.06,-4.59 1.29,-3.89 1.28,-3.15 1.27,-2.42 1.03,-1.72 0.79,-1.03 0.34,-0.44 -0.10,0.13 -0.72,0.53 -1.33,0.94 -2.04,1.13 -2.75,1.32 -3.49,1.27 -4.22,1.22 -4.90,0.95 -5.59,0.67 -6.14,0.18 -6.70,-0.29 -7.07,-0.92 -7.44,-1.56 -7.59,-2.28 -7.74,-3.00 -7.66,-3.73 -7.57,-4.46 -7.25,-5.13 -6.94,-5.79 -6.43,-6.32 -5.91,-6.85 -5.26,-7.19 -4.61,-7.53 -3.88,-7.64 -3.15,-7.75 -2.43,-7.62 -1.70,-7.49 -1.70,-7.50 -1.70,-7.50 2.24,-4.06 6.18,-0.62 7.29,1.48 8.40,3.60 9.51,6.46 10.62,9.31 12.03,12.95 13.45,16.59 14.40,19.80 15.35,23.01 16.25,25.88 17.14,28.74 18.02,32.29 18.91,35.83 19.77,40.09 20.63,44.34 22.00,48.95 23.37,53.56 25.10,61.52 26.83,69.48 27.17,75.27 27.50,81.05 28.30,85.77 29.09,90.49 29.40,94.91 29.72,99.33 29.63,103.70 29.55,108.07 29.23,112.31 28.91,116.56 28.42,120.22 27.93,123.88 26.49,128.37 25.06,132.87 21.57,135.42 18.08,137.97 15.02,137.82 11.97,137.67 6.89,137.46 1.80,137.25 -1.87,136.20 -5.55,135.16 -10.09,131.86 -14.64,128.56 -15.91,126.48 -17.17,124.39 -20.01,120.31 -22.85,116.22 -24.76,111.31 -26.68,106.40 -26.78,104.04 -26.88,101.67 -26.71,98.20 -26.54,94.73 -26.17,91.72 -25.79,88.71 -25.34,84.55 -24.89,80.40 -23.91,74.46 -22.93,68.52 -22.01,62.51 -21.09,56.50 -20.23,50.07 -19.36,43.65 -18.40,40.43 -17.44,37.21 -15.71,32.15 -13.98,27.08 -13.00,24.54 -12.01,21.99 -10.90,18.02 -9.79,14.06 -8.25,8.40 -6.71,2.75 -4.76,0.32 -2.81,-2.10 -2.51,-2.41 -2.22,-2.71 -1.86,-2.94 -1.50,-3.17 -1.10,-3.30 -0.70,-3.44 -0.28,-3.47 0.13,-3.51 0.55,-3.44 0.97,-3.37 1.36,-3.20 1.75,-3.04 2.09,-2.78 2.43,-2.53 2.69,-2.20 2.96,-1.88 3.14,-1.49 3.33,-1.11 3.41,-0.70 3.50,-0.28 3.48,0.13 3.46,0.56 3.35,0.96 3.23,1.37 3.02,1.74 2.81,2.10 2.81,2.10 L 2.81,2.10 Z"></path></g><g transform="translate(174.67676126001592 765.636559231764) rotate(0 13.882051681810566 -48.05325582165193)" stroke="none"><path fill="#1e1e1e" d="M -3.33,0 Q -3.33,0 -3.24,-4.29 -3.14,-8.59 -3.07,-15.94 -3.00,-23.30 -3.25,-27.86 -3.50,-32.43 -4.20,-37.68 -4.90,-42.94 -5.22,-47.15 -5.55,-51.35 -6.26,-55.75 -6.96,-60.14 -7.87,-64.79 -8.77,-69.43 -9.18,-74.96 -9.58,-80.49 -10.50,-83.43 -11.41,-86.37 -11.99,-88.77 -12.57,-91.16 -12.41,-94.24 -12.24,-97.33 -9.64,-98.82 -7.04,-100.32 -3.69,-100.39 -0.33,-100.47 2.76,-99.89 5.85,-99.30 8.11,-98.35 10.36,-97.40 13.61,-95.91 16.85,-94.41 19.64,-92.19 22.42,-89.97 25.55,-87.15 28.68,-84.32 30.71,-83.02 32.74,-81.72 34.78,-79.47 36.82,-77.22 37.92,-74.92 39.01,-72.61 40.50,-69.01 41.99,-65.41 41.67,-61.28 41.34,-57.15 39.55,-54.31 37.75,-51.47 36.22,-49.76 34.69,-48.05 32.48,-46.23 30.28,-44.40 27.40,-43.90 24.53,-43.40 21.53,-42.83 18.53,-42.25 16.33,-41.81 14.13,-41.37 11.36,-41.03 8.60,-40.69 7.42,-40.62 6.25,-40.55 5.48,-40.63 4.70,-40.71 3.97,-40.97 3.24,-41.24 2.60,-41.67 1.95,-42.10 1.43,-42.67 0.90,-43.25 0.53,-43.93 0.16,-44.61 -0.03,-45.36 -0.22,-46.11 -0.24,-46.89 -0.25,-47.66 -0.07,-48.42 0.09,-49.18 0.44,-49.87 0.79,-50.56 1.30,-51.15 1.80,-51.74 2.43,-52.19 3.07,-52.64 3.79,-52.93 4.51,-53.22 5.28,-53.32 6.05,-53.43 8.50,-52.40 10.96,-51.37 14.30,-48.89 17.65,-46.41 19.81,-44.90 21.98,-43.40 24.28,-39.50 26.58,-35.60 28.25,-32.40 29.91,-29.19 30.58,-26.35 31.26,-23.51 31.62,-20.71 31.98,-17.92 31.67,-14.15 31.36,-10.38 29.53,-7.23 27.70,-4.08 26.00,-1.81 24.31,0.45 22.36,2.10 20.41,3.75 18.46,4.59 16.51,5.43 13.44,5.88 10.37,6.33 7.33,6.47 4.29,6.60 3.24,6.44 2.18,6.27 1.24,5.77 0.29,5.27 -0.44,4.50 -1.18,3.73 -1.63,2.76 -2.09,1.79 -2.21,0.73 -2.33,-0.33 -2.10,-1.37 -1.87,-2.42 -1.33,-3.33 -0.78,-4.25 0.02,-4.95 0.84,-5.64 1.83,-6.04 2.82,-6.44 3.89,-6.51 4.95,-6.57 5.99,-6.29 7.02,-6.01 7.90,-5.41 8.79,-4.81 9.44,-3.96 10.09,-3.11 10.44,-2.10 10.78,-1.09 10.79,-0.02 10.79,1.04 10.46,2.05 10.12,3.07 9.48,3.92 8.83,4.78 7.95,5.38 7.07,5.98 6.04,6.27 5.01,6.56 3.94,6.51 2.87,6.46 1.88,6.06 0.88,5.67 0.06,4.98 -0.74,4.29 -1.30,3.38 -1.85,2.47 -2.09,1.42 -2.32,0.38 -2.21,-0.67 -2.10,-1.74 -1.65,-2.71 -1.21,-3.68 -0.48,-4.46 0.25,-5.24 1.19,-5.75 2.13,-6.25 3.19,-6.43 4.24,-6.60 4.24,-6.60 4.24,-6.60 6.81,-6.57 9.38,-6.54 11.82,-6.67 14.27,-6.80 15.57,-8.83 16.87,-10.85 17.96,-12.74 19.05,-14.63 18.90,-17.79 18.75,-20.95 17.62,-24.00 16.49,-27.05 15.19,-30.21 13.89,-33.37 11.71,-35.01 9.52,-36.65 7.89,-38.60 6.25,-40.55 5.48,-40.63 4.70,-40.71 3.97,-40.97 3.24,-41.24 2.60,-41.67 1.95,-42.10 1.43,-42.67 0.90,-43.24 0.53,-43.93 0.16,-44.61 -0.03,-45.36 -0.22,-46.11 -0.24,-46.89 -0.25,-47.66 -0.07,-48.42 0.09,-49.18 0.44,-49.87 0.79,-50.56 1.30,-51.15 1.80,-51.74 2.43,-52.19 3.06,-52.64 3.79,-52.93 4.51,-53.22 5.28,-53.32 6.05,-53.43 7.63,-53.36 9.22,-53.30 11.84,-53.45 14.46,-53.60 17.11,-54.39 19.75,-55.18 22.34,-54.83 24.93,-54.48 26.71,-56.04 28.49,-57.61 29.92,-61.22 31.35,-64.83 30.47,-66.96 29.58,-69.09 28.47,-71.60 27.36,-74.11 25.27,-75.66 23.19,-77.20 19.52,-79.63 15.85,-82.05 14.19,-83.52 12.52,-84.98 9.25,-86.90 5.97,-88.82 2.84,-90.22 -0.28,-91.61 -2.97,-91.89 -5.66,-92.16 -5.57,-89.99 -5.49,-87.82 -4.84,-84.36 -4.19,-80.90 -3.80,-75.69 -3.41,-70.49 -2.45,-65.77 -1.49,-61.05 -0.70,-56.42 0.08,-51.79 0.39,-47.75 0.69,-43.72 1.48,-38.26 2.27,-32.81 2.64,-28.05 3.00,-23.30 3.07,-15.94 3.14,-8.59 3.24,-4.29 3.33,0 3.28,0.39 3.24,0.79 3.09,1.17 2.95,1.55 2.72,1.88 2.49,2.21 2.19,2.47 1.89,2.74 1.53,2.93 1.18,3.12 0.79,3.21 0.40,3.31 -0.00,3.31 -0.40,3.31 -0.79,3.21 -1.18,3.12 -1.53,2.93 -1.89,2.74 -2.19,2.47 -2.49,2.21 -2.72,1.88 -2.95,1.55 -3.09,1.17 -3.24,0.79 -3.28,0.39 -3.33,-0.00 -3.33,-0.00 L -3.33,0 Z"></path></g><g transform="translate(476.87834787173813 768.840109619874) rotate(0 30.433728687046226 -51.25680620976203)" stroke="none"><path fill="#1e1e1e" d="M -3.30,-0.20 Q -3.30,-0.20 -2.90,-5.11 -2.50,-10.01 -1.68,-15.58 -0.85,-21.15 -0.50,-26.73 -0.14,-32.31 0.01,-38.67 0.18,-45.03 0.27,-49.28 0.35,-53.53 0.39,-60.24 0.44,-66.95 0.46,-75.02 0.48,-83.10 0.50,-88.07 0.51,-93.03 0.66,-96.52 0.81,-100.00 1.75,-103.27 2.68,-106.53 2.76,-106.91 2.84,-107.30 3.02,-107.65 3.19,-108.00 3.44,-108.30 3.69,-108.60 4.01,-108.83 4.32,-109.06 4.69,-109.21 5.05,-109.36 5.43,-109.42 5.82,-109.48 6.21,-109.44 6.60,-109.41 6.97,-109.28 7.34,-109.15 7.67,-108.94 8.00,-108.72 8.27,-108.44 8.53,-108.15 8.73,-107.81 8.92,-107.47 9.02,-107.09 9.13,-106.71 9.14,-106.32 9.15,-105.93 13.23,-99.44 17.32,-92.94 20.15,-86.86 22.99,-80.79 25.72,-74.78 28.46,-68.78 32.99,-58.21 37.53,-47.64 40.68,-39.75 43.83,-31.86 46.35,-26.44 48.87,-21.02 50.62,-17.49 52.37,-13.97 53.63,-11.56 54.90,-9.15 56.56,-6.12 58.22,-3.08 59.41,-1.19 60.60,0.68 62.64,3.48 64.67,6.27 64.94,6.94 65.20,7.61 65.23,8.32 65.27,9.04 65.07,9.73 64.88,10.42 64.47,11.01 64.07,11.60 63.49,12.03 62.92,12.47 62.24,12.69 61.56,12.92 60.84,12.91 60.12,12.91 59.44,12.68 58.77,12.45 58.20,12.01 57.63,11.57 57.23,10.98 56.83,10.38 56.64,9.69 56.45,9.00 56.49,8.28 56.54,7.56 56.81,6.90 57.07,6.23 57.54,5.69 58.01,5.14 58.63,4.78 59.24,4.41 59.94,4.26 60.64,4.11 61.36,4.19 62.07,4.27 62.72,4.58 63.37,4.88 63.89,5.38 64.41,5.87 64.74,6.51 65.07,7.14 65.18,7.85 65.30,8.56 65.18,9.27 65.06,9.97 64.72,10.61 64.38,11.24 63.86,11.73 63.33,12.22 62.68,12.52 62.03,12.82 61.31,12.89 60.60,12.96 59.90,12.81 59.20,12.65 58.59,12.28 57.97,11.90 57.51,11.35 57.05,10.80 57.05,10.80 57.05,10.81 56.41,9.43 55.76,8.06 54.81,6.11 53.85,4.17 53.01,2.12 52.17,0.08 50.50,-3.24 48.82,-6.57 48.02,-9.03 47.22,-11.49 45.56,-15.09 43.89,-18.68 41.27,-24.22 38.64,-29.77 35.46,-37.57 32.28,-45.37 27.70,-55.83 23.12,-66.29 20.29,-72.21 17.46,-78.12 14.45,-84.20 11.43,-90.27 9.10,-95.38 6.77,-100.49 4.72,-103.51 2.68,-106.53 2.76,-106.91 2.84,-107.29 3.02,-107.65 3.19,-108.00 3.44,-108.30 3.69,-108.60 4.01,-108.83 4.32,-109.06 4.68,-109.21 5.05,-109.36 5.43,-109.42 5.82,-109.48 6.21,-109.44 6.60,-109.41 6.97,-109.28 7.34,-109.15 7.67,-108.94 8.00,-108.72 8.27,-108.44 8.53,-108.15 8.73,-107.81 8.92,-107.47 9.02,-107.09 9.13,-106.71 9.14,-106.32 9.15,-105.93 7.98,-102.67 6.81,-99.41 6.34,-96.22 5.87,-93.03 5.88,-88.06 5.88,-83.09 5.89,-75.01 5.89,-66.93 5.88,-60.20 5.88,-53.46 5.85,-49.19 5.82,-44.92 5.72,-38.45 5.62,-31.99 5.34,-26.17 5.06,-20.35 4.39,-14.98 3.73,-9.62 3.51,-4.71 3.30,0.20 3.23,0.59 3.15,0.99 2.99,1.35 2.82,1.71 2.58,2.03 2.33,2.34 2.02,2.59 1.70,2.83 1.34,2.99 0.97,3.16 0.58,3.23 0.19,3.30 -0.20,3.27 -0.60,3.25 -0.98,3.13 -1.36,3.01 -1.70,2.80 -2.04,2.60 -2.32,2.31 -2.61,2.03 -2.81,1.69 -3.02,1.35 -3.13,0.97 -3.25,0.58 -3.28,0.19 -3.30,-0.20 -3.30,-0.20 L -3.30,-0.20 Z"></path></g><g transform="translate(482.2175985185884 730.3975049625525) rotate(0 17.619527134605704 1.067850129370072)" stroke="none"><path fill="#1e1e1e" d="M 1.13,-5.12 Q 1.13,-5.12 3.89,-4.49 6.65,-3.85 8.77,-3.67 10.90,-3.49 13.38,-3.49 15.86,-3.50 19.48,-4.06 23.10,-4.63 27.00,-4.76 30.90,-4.89 33.04,-4.96 35.19,-5.02 36.16,-4.87 37.13,-4.72 38.01,-4.26 38.88,-3.81 39.57,-3.10 40.25,-2.39 40.67,-1.50 41.09,-0.60 41.21,0.37 41.32,1.34 41.12,2.31 40.91,3.27 40.41,4.12 39.91,4.97 39.16,5.62 38.42,6.26 37.50,6.63 36.59,7.01 35.61,7.07 34.62,7.13 33.67,6.87 32.72,6.62 31.90,6.07 31.08,5.52 30.47,4.74 29.87,3.96 29.55,3.03 29.23,2.10 29.22,1.11 29.21,0.12 29.52,-0.80 29.83,-1.74 30.42,-2.53 31.01,-3.32 31.82,-3.88 32.63,-4.44 33.58,-4.71 34.53,-4.98 35.51,-4.94 36.50,-4.89 37.42,-4.53 38.34,-4.17 39.09,-3.54 39.85,-2.91 40.36,-2.07 40.88,-1.23 41.10,-0.27 41.32,0.69 41.22,1.67 41.12,2.65 40.71,3.55 40.31,4.45 39.63,5.17 38.96,5.89 38.09,6.36 37.22,6.82 36.25,6.99 35.28,7.16 35.28,7.16 35.28,7.16 31.07,7.15 26.85,7.15 24.45,7.18 22.04,7.22 18.69,7.42 15.34,7.63 12.55,7.31 9.76,6.99 7.08,6.65 4.39,6.31 1.62,5.72 -1.13,5.12 -1.73,4.91 -2.33,4.70 -2.86,4.35 -3.39,4.01 -3.82,3.54 -4.25,3.08 -4.56,2.52 -4.86,1.97 -5.03,1.36 -5.20,0.75 -5.21,0.11 -5.22,-0.51 -5.09,-1.13 -4.95,-1.75 -4.67,-2.31 -4.39,-2.88 -3.98,-3.36 -3.57,-3.85 -3.06,-4.22 -2.54,-4.59 -1.96,-4.83 -1.37,-5.07 -0.74,-5.16 -0.12,-5.25 0.51,-5.19 1.14,-5.12 1.14,-5.12 L 1.13,-5.12 Z"></path></g><g transform="translate(567.6456088681919 668.46219745909) rotate(0 17.085602069920753 58.19783205066739)" stroke="none"><path fill="#1e1e1e" d="M 4.19,0 Q 4.19,0 3.98,4.29 3.77,8.59 3.69,12.57 3.61,16.54 3.47,22.22 3.34,27.90 3.24,32.47 3.14,37.03 3.07,41.73 3.00,46.44 3.21,49.05 3.42,51.66 3.77,56.12 4.11,60.58 3.54,63.14 2.98,65.70 2.58,69.67 2.18,73.65 1.90,77.95 1.61,82.25 1.67,85.32 1.73,88.39 2.43,91.18 3.13,93.96 3.23,97.10 3.34,100.23 3.61,103.83 3.87,107.43 4.06,110.40 4.26,113.37 7.28,111.95 10.31,110.53 14.18,110.50 18.05,110.47 20.84,110.54 23.63,110.62 26.59,110.28 29.55,109.94 32.73,109.58 35.91,109.22 36.90,109.32 37.88,109.42 38.78,109.83 39.68,110.23 40.41,110.91 41.13,111.58 41.60,112.45 42.07,113.32 42.24,114.29 42.41,115.27 42.26,116.24 42.11,117.22 41.66,118.10 41.20,118.98 40.49,119.66 39.78,120.35 38.88,120.77 37.99,121.20 37.01,121.31 36.03,121.43 35.06,121.22 34.09,121.02 33.24,120.52 32.39,120.02 31.74,119.27 31.10,118.52 30.72,117.61 30.35,116.69 30.28,115.70 30.22,114.72 30.48,113.76 30.73,112.81 31.28,111.98 31.83,111.16 32.61,110.56 33.39,109.95 34.32,109.63 35.26,109.30 36.25,109.29 37.24,109.28 38.18,109.59 39.12,109.90 39.91,110.49 40.70,111.08 41.26,111.89 41.82,112.71 42.10,113.66 42.37,114.61 42.33,115.59 42.28,116.58 41.92,117.50 41.57,118.43 40.93,119.18 40.30,119.94 39.46,120.46 38.61,120.98 37.65,121.20 36.69,121.42 36.69,121.42 36.69,121.42 34.18,121.52 31.67,121.61 27.65,121.89 23.63,122.16 20.84,122.23 18.04,122.31 14.15,122.26 10.25,122.22 6.27,122.14 2.28,122.06 -1.05,120.85 -4.39,119.65 -5.39,116.52 -6.40,113.39 -6.22,110.43 -6.04,107.48 -5.83,103.93 -5.63,100.39 -5.61,96.59 -5.58,92.80 -5.72,90.54 -5.86,88.29 -5.71,85.18 -5.55,82.07 -5.62,77.63 -5.68,73.19 -4.89,66.83 -4.11,60.46 -3.77,56.06 -3.42,51.66 -3.21,49.05 -3.00,46.44 -3.07,41.73 -3.14,37.03 -3.24,32.47 -3.34,27.90 -3.47,22.22 -3.61,16.54 -3.69,12.57 -3.77,8.59 -3.98,4.29 -4.19,0 -4.13,-0.50 -4.07,-1.00 -3.89,-1.47 -3.71,-1.95 -3.42,-2.36 -3.14,-2.78 -2.76,-3.11 -2.38,-3.45 -1.93,-3.68 -1.48,-3.92 -0.99,-4.04 -0.50,-4.16 0.00,-4.16 0.50,-4.16 0.99,-4.04 1.48,-3.92 1.93,-3.68 2.38,-3.45 2.76,-3.11 3.14,-2.78 3.42,-2.36 3.71,-1.94 3.89,-1.47 4.07,-1.00 4.13,-0.50 4.19,0.00 4.19,0.00 L 4.19,0 Z"></path></g><g transform="translate(641.3272677947248 678.0728486234204) rotate(0 28.831953492991147 0)" stroke="none"><path fill="#1e1e1e" d="M 0,-4.50 Q 0,-4.50 2.76,-4.56 5.52,-4.61 11.30,-4.35 17.08,-4.09 21.69,-3.89 26.29,-3.70 31.32,-3.55 36.35,-3.41 39.40,-3.53 42.46,-3.66 45.49,-3.98 48.53,-4.30 53.09,-4.54 57.66,-4.79 58.42,-4.66 59.19,-4.54 59.87,-4.17 60.56,-3.81 61.09,-3.25 61.63,-2.68 61.95,-1.98 62.28,-1.28 62.36,-0.51 62.44,0.25 62.28,1.01 62.11,1.77 61.71,2.43 61.31,3.10 60.72,3.60 60.13,4.10 59.41,4.39 58.69,4.68 57.91,4.72 57.14,4.76 56.39,4.55 55.65,4.34 55.00,3.91 54.36,3.47 53.89,2.86 53.42,2.24 53.18,1.50 52.93,0.77 52.93,-0.00 52.93,-0.77 53.18,-1.51 53.43,-2.24 53.89,-2.86 54.36,-3.47 55.01,-3.91 55.65,-4.34 56.39,-4.55 57.14,-4.76 57.92,-4.72 58.69,-4.67 59.41,-4.39 60.13,-4.10 60.72,-3.60 61.31,-3.10 61.71,-2.43 62.11,-1.77 62.28,-1.01 62.44,-0.25 62.36,0.51 62.28,1.28 61.95,1.98 61.62,2.69 61.09,3.25 60.56,3.81 59.87,4.17 59.19,4.54 58.42,4.66 57.66,4.79 57.66,4.79 57.66,4.79 53.09,4.54 48.53,4.30 45.49,3.98 42.46,3.66 39.40,3.53 36.35,3.41 31.32,3.55 26.29,3.70 21.69,3.89 17.08,4.09 11.30,4.35 5.52,4.61 2.76,4.56 0,4.50 -0.53,4.44 -1.07,4.37 -1.58,4.18 -2.09,3.99 -2.54,3.68 -2.98,3.37 -3.34,2.96 -3.70,2.55 -3.96,2.07 -4.21,1.59 -4.34,1.07 -4.47,0.54 -4.47,-0.00 -4.47,-0.54 -4.34,-1.07 -4.21,-1.59 -3.96,-2.07 -3.70,-2.56 -3.34,-2.96 -2.98,-3.37 -2.54,-3.68 -2.09,-3.99 -1.58,-4.18 -1.07,-4.37 -0.53,-4.44 0.00,-4.50 0.00,-4.50 L 0,-4.50 Z"></path></g><g transform="translate(672.294921546456 679.1406987527905) rotate(0 1.067850129370072 51.25680620976203)" stroke="none"><path fill="#1e1e1e" d="M 3.79,-0.68 Q 3.79,-0.68 4.42,2.68 5.06,6.05 5.48,8.53 5.91,11.00 6.10,13.99 6.30,16.98 6.20,21.01 6.09,25.04 5.93,29.51 5.76,33.98 5.32,40.56 4.88,47.14 4.84,50.51 4.80,53.87 4.54,57.00 4.29,60.13 3.99,64.60 3.70,69.07 3.82,73.66 3.95,78.26 3.97,83.08 3.99,87.91 4.29,92.00 4.59,96.08 5.01,99.16 5.44,102.23 5.39,102.77 5.35,103.30 5.14,103.79 4.93,104.29 4.57,104.69 4.22,105.09 3.75,105.35 3.28,105.62 2.76,105.72 2.23,105.82 1.70,105.75 1.16,105.68 0.68,105.44 0.20,105.21 -0.17,104.83 -0.55,104.45 -0.79,103.97 -1.03,103.49 -1.10,102.96 -1.18,102.43 -1.08,101.90 -0.98,101.37 -0.71,100.90 -0.45,100.44 -0.05,100.08 0.34,99.72 0.83,99.50 1.32,99.29 1.86,99.25 2.39,99.20 2.91,99.33 3.43,99.46 3.89,99.75 4.34,100.03 4.68,100.45 5.01,100.87 5.20,101.37 5.39,101.88 5.40,102.41 5.42,102.95 5.26,103.46 5.11,103.98 4.79,104.41 4.48,104.85 4.05,105.16 3.61,105.48 3.10,105.64 2.59,105.79 2.05,105.78 1.51,105.77 1.01,105.58 0.50,105.40 0.09,105.06 -0.32,104.73 -0.61,104.28 -0.90,103.83 -1.03,103.31 -1.16,102.79 -1.16,102.79 -1.16,102.79 -1.26,99.68 -1.35,96.58 -1.75,92.31 -2.16,88.04 -2.34,83.32 -2.53,78.59 -2.88,73.72 -3.24,68.84 -3.23,64.03 -3.22,59.22 -2.75,56.41 -2.28,53.60 -2.07,50.22 -1.86,46.83 -1.70,40.42 -1.55,34.01 -1.75,29.57 -1.96,25.14 -2.16,21.23 -2.36,17.32 -2.38,14.62 -2.41,11.92 -2.50,9.68 -2.60,7.45 -3.19,4.06 -3.79,0.68 -3.81,0.22 -3.84,-0.23 -3.76,-0.69 -3.67,-1.15 -3.48,-1.57 -3.29,-1.99 -3.00,-2.36 -2.72,-2.72 -2.35,-3.01 -1.98,-3.30 -1.56,-3.49 -1.14,-3.68 -0.68,-3.76 -0.22,-3.84 0.23,-3.81 0.70,-3.78 1.14,-3.65 1.58,-3.51 1.98,-3.27 2.38,-3.03 2.70,-2.70 3.03,-2.37 3.27,-1.97 3.51,-1.57 3.65,-1.13 3.79,-0.68 3.79,-0.68 L 3.79,-0.68 Z"></path></g><g transform="translate(648.802218700315 781.6543111723146) rotate(0 25.628403104881045 0)" stroke="none"><path fill="#1e1e1e" d="M 0,-4.59 Q 0,-4.59 5.21,-4.33 10.43,-4.07 14.80,-3.88 19.17,-3.68 23.48,-3.54 27.79,-3.40 30.85,-3.52 33.91,-3.65 37.26,-3.99 40.60,-4.32 43.05,-4.42 45.50,-4.53 48.37,-4.65 51.25,-4.77 52.01,-4.64 52.78,-4.52 53.46,-4.15 54.14,-3.79 54.67,-3.23 55.20,-2.67 55.52,-1.97 55.85,-1.27 55.93,-0.50 56.02,0.25 55.85,1.01 55.68,1.76 55.29,2.42 54.89,3.08 54.30,3.58 53.71,4.08 52.99,4.37 52.28,4.65 51.51,4.70 50.74,4.74 49.99,4.53 49.25,4.32 48.61,3.89 47.97,3.46 47.50,2.84 47.04,2.23 46.79,1.50 46.54,0.77 46.54,-0.00 46.54,-0.77 46.79,-1.50 47.04,-2.23 47.50,-2.84 47.97,-3.46 48.61,-3.89 49.25,-4.33 49.99,-4.53 50.74,-4.74 51.51,-4.70 52.28,-4.65 53.00,-4.37 53.71,-4.08 54.30,-3.58 54.89,-3.08 55.29,-2.42 55.68,-1.76 55.85,-1.01 56.02,-0.25 55.93,0.51 55.85,1.27 55.52,1.97 55.20,2.67 54.67,3.23 54.14,3.79 53.46,4.16 52.77,4.52 52.01,4.64 51.25,4.77 51.25,4.77 51.25,4.77 48.37,4.65 45.50,4.53 43.05,4.42 40.60,4.32 37.26,3.99 33.91,3.65 30.85,3.52 27.79,3.40 23.48,3.54 19.17,3.68 14.80,3.88 10.43,4.07 5.21,4.33 0,4.59 -0.54,4.52 -1.09,4.45 -1.61,4.26 -2.13,4.06 -2.58,3.74 -3.04,3.43 -3.41,3.02 -3.77,2.60 -4.03,2.11 -4.29,1.62 -4.42,1.09 -4.55,0.55 -4.55,-0.00 -4.55,-0.55 -4.42,-1.09 -4.29,-1.62 -4.03,-2.11 -3.77,-2.60 -3.41,-3.02 -3.04,-3.43 -2.58,-3.75 -2.13,-4.06 -1.61,-4.26 -1.09,-4.45 -0.54,-4.52 0.00,-4.59 0.00,-4.59 L 0,-4.59 Z"></path></g><g transform="translate(805.7761877177114 680.2085488821605) rotate(0 -26.69625323425109 50.188956080392074)" stroke="none"><path fill="#1e1e1e" d="M 0,5.29 Q 0,5.29 -2.45,5.31 -4.91,5.33 -8.19,5.47 -11.47,5.61 -14.43,5.78 -17.40,5.95 -20.49,6.93 -23.59,7.91 -26.61,8.61 -29.63,9.32 -32.74,13.16 -35.85,17.01 -36.92,19.19 -38.00,21.36 -38.73,24.25 -39.46,27.13 -40.47,30.42 -41.48,33.71 -42.14,36.46 -42.80,39.22 -43.67,41.45 -44.53,43.68 -45.61,46.41 -46.69,49.14 -46.77,51.39 -46.86,53.64 -46.99,56.27 -47.12,58.91 -47.10,62.29 -47.09,65.68 -46.53,68.36 -45.97,71.05 -45.35,73.18 -44.73,75.31 -44.17,77.71 -43.60,80.10 -41.54,81.14 -39.49,82.17 -36.33,84.60 -33.17,87.03 -29.60,88.10 -26.03,89.16 -23.02,90.23 -20.02,91.29 -17.69,91.46 -15.36,91.63 -11.32,92.07 -7.27,92.52 -5.00,92.62 -2.74,92.72 -0.60,93.30 1.53,93.89 2.52,94.30 3.52,94.72 4.33,95.43 5.14,96.14 5.68,97.07 6.22,98.00 6.44,99.06 6.65,100.12 6.52,101.19 6.39,102.26 5.92,103.23 5.45,104.20 4.70,104.97 3.94,105.74 2.98,106.23 2.02,106.72 0.96,106.88 -0.10,107.04 -1.16,106.84 -2.22,106.65 -3.17,106.13 -4.11,105.61 -4.84,104.82 -5.57,104.03 -6.01,103.04 -6.44,102.06 -6.54,100.98 -6.64,99.91 -6.39,98.86 -6.15,97.81 -5.58,96.90 -5.01,95.98 -4.17,95.30 -3.34,94.61 -2.33,94.23 -1.33,93.84 -0.25,93.80 0.82,93.76 1.85,94.07 2.89,94.37 3.77,94.99 4.65,95.61 5.29,96.48 5.93,97.34 6.26,98.37 6.59,99.40 6.57,100.48 6.55,101.55 6.19,102.57 5.83,103.59 5.17,104.43 4.50,105.28 3.60,105.87 2.70,106.46 1.65,106.74 0.61,107.01 -0.45,106.93 -1.53,106.86 -1.53,106.86 -1.53,106.86 -3.30,106.32 -5.08,105.78 -8.44,105.18 -11.80,104.59 -15.59,104.42 -19.39,104.26 -21.57,103.90 -23.75,103.55 -27.07,102.36 -30.39,101.16 -34.17,99.74 -37.95,98.33 -40.10,96.82 -42.26,95.32 -44.20,94.15 -46.14,92.98 -47.71,91.36 -49.28,89.73 -51.07,88.15 -52.86,86.57 -54.10,82.42 -55.34,78.26 -55.96,75.93 -56.59,73.60 -57.51,70.12 -58.44,66.63 -59.02,62.73 -59.60,58.83 -59.69,55.88 -59.78,52.93 -59.52,50.57 -59.26,48.21 -58.17,44.79 -57.08,41.36 -55.92,39.00 -54.76,36.64 -53.91,33.68 -53.05,30.71 -51.95,27.52 -50.85,24.33 -49.60,20.39 -48.36,16.45 -47.17,13.87 -45.99,11.29 -42.68,5.97 -39.38,0.65 -35.65,-1.33 -31.92,-3.31 -29.16,-3.41 -26.41,-3.50 -24.42,-4.59 -22.43,-5.67 -19.91,-5.81 -17.40,-5.95 -14.43,-5.78 -11.47,-5.61 -8.19,-5.47 -4.91,-5.33 -2.45,-5.31 0,-5.29 0.63,-5.21 1.26,-5.14 1.86,-4.91 2.46,-4.69 2.98,-4.32 3.51,-3.96 3.93,-3.48 4.35,-3.00 4.65,-2.44 4.95,-1.87 5.10,-1.25 5.25,-0.63 5.25,0.00 5.25,0.63 5.10,1.25 4.95,1.87 4.65,2.44 4.35,3.00 3.93,3.48 3.51,3.96 2.98,4.32 2.46,4.69 1.86,4.91 1.26,5.14 0.63,5.21 -0.00,5.29 -0.00,5.29 L 0,5.29 Z"></path></g><g transform="translate(884.7970972910946 685.5477995290107) rotate(0 -11.74635142307045 51.790731274447126)" stroke="none"><path fill="#1e1e1e" d="M 0,4.95 Q 0,4.95 -4.29,4.65 -8.59,4.35 -10.72,4.47 -12.86,4.60 -15.91,4.60 -18.97,4.61 -21.78,4.76 -24.60,4.91 -25.08,8.47 -25.55,12.04 -26.73,15.56 -27.90,19.08 -28.55,23.35 -29.20,27.62 -29.57,31.65 -29.94,35.69 -30.19,41.38 -30.44,47.07 -30.61,51.96 -30.77,56.84 -30.88,61.99 -31.00,67.14 -31.07,72.09 -31.15,77.04 -30.95,79.76 -30.75,82.47 -30.48,87.01 -30.21,91.55 -30.06,93.78 -29.91,96.01 -29.66,98.54 -29.41,101.07 -26.06,99.71 -22.71,98.35 -20.18,98.34 -17.64,98.33 -14.52,97.92 -11.40,97.50 -7.49,97.36 -3.59,97.21 -0.74,97.06 2.11,96.90 6.36,96.64 10.62,96.39 11.43,96.51 12.23,96.63 12.96,97.01 13.69,97.38 14.26,97.97 14.83,98.56 15.18,99.30 15.53,100.03 15.63,100.85 15.72,101.66 15.56,102.46 15.39,103.26 14.98,103.97 14.56,104.67 13.95,105.21 13.33,105.74 12.57,106.06 11.81,106.37 11.00,106.42 10.18,106.47 9.39,106.26 8.60,106.05 7.92,105.60 7.24,105.15 6.73,104.50 6.23,103.86 5.96,103.09 5.69,102.31 5.68,101.50 5.68,100.68 5.93,99.90 6.18,99.12 6.67,98.46 7.16,97.81 7.83,97.34 8.50,96.88 9.29,96.65 10.07,96.42 10.89,96.46 11.71,96.49 12.47,96.79 13.23,97.08 13.86,97.60 14.49,98.13 14.92,98.82 15.35,99.52 15.53,100.32 15.72,101.11 15.64,101.93 15.56,102.74 15.22,103.49 14.89,104.23 14.33,104.83 13.78,105.43 13.06,105.82 12.34,106.21 11.53,106.36 10.73,106.50 10.73,106.50 10.73,106.50 6.60,106.40 2.48,106.31 -0.22,106.37 -2.93,106.44 -6.33,106.81 -9.74,107.18 -13.70,107.99 -17.65,108.79 -20.22,108.76 -22.79,108.74 -25.98,108.79 -29.17,108.84 -32.89,107.89 -36.61,106.93 -37.77,104.00 -38.92,101.07 -38.67,98.54 -38.42,96.01 -38.27,93.78 -38.12,91.55 -37.85,87.01 -37.57,82.47 -37.37,79.75 -37.17,77.03 -37.23,72.07 -37.30,67.12 -37.38,61.96 -37.47,56.80 -37.57,51.89 -37.67,46.97 -37.77,41.16 -37.88,35.35 -37.90,31.10 -37.92,26.85 -37.74,21.75 -37.56,16.64 -36.80,12.55 -36.03,8.46 -35.18,5.94 -34.34,3.42 -32.40,0.44 -30.46,-2.52 -27.96,-3.71 -25.47,-4.91 -22.22,-4.76 -18.97,-4.61 -15.91,-4.60 -12.86,-4.60 -10.72,-4.47 -8.59,-4.35 -4.29,-4.65 0,-4.95 0.59,-4.88 1.18,-4.81 1.74,-4.60 2.30,-4.39 2.79,-4.05 3.28,-3.71 3.68,-3.26 4.08,-2.81 4.35,-2.28 4.63,-1.75 4.78,-1.17 4.92,-0.59 4.92,0.00 4.92,0.59 4.78,1.17 4.63,1.75 4.35,2.28 4.08,2.81 3.68,3.26 3.28,3.71 2.79,4.05 2.30,4.39 1.74,4.60 1.18,4.81 0.59,4.88 -0.00,4.95 -0.00,4.95 L 0,4.95 Z"></path></g><g transform="translate(854.8972936687335 735.7367556094027) rotate(0 13.88205168181048 1.067850129370072)" stroke="none"><path fill="#1e1e1e" d="M 0.91,-5.03 Q 0.91,-5.03 4.27,-4.31 7.62,-3.58 9.82,-3.40 12.01,-3.23 15.77,-3.24 19.52,-3.24 22.11,-3.41 24.69,-3.57 26.23,-3.60 27.77,-3.64 28.69,-3.48 29.61,-3.33 30.44,-2.89 31.26,-2.45 31.90,-1.78 32.55,-1.10 32.94,-0.25 33.33,0.59 33.43,1.52 33.53,2.45 33.33,3.36 33.12,4.28 32.64,5.08 32.16,5.88 31.44,6.48 30.73,7.09 29.86,7.43 28.99,7.77 28.06,7.82 27.13,7.87 26.23,7.62 25.33,7.37 24.55,6.85 23.78,6.32 23.22,5.58 22.65,4.83 22.35,3.94 22.06,3.06 22.06,2.12 22.06,1.19 22.36,0.30 22.66,-0.57 23.22,-1.32 23.79,-2.06 24.57,-2.58 25.34,-3.11 26.24,-3.36 27.14,-3.60 28.08,-3.55 29.01,-3.50 29.88,-3.15 30.74,-2.81 31.46,-2.20 32.17,-1.59 32.65,-0.79 33.13,0.00 33.33,0.91 33.53,1.83 33.43,2.76 33.32,3.68 32.93,4.53 32.54,5.38 31.89,6.06 31.25,6.74 30.42,7.17 29.60,7.61 28.67,7.76 27.75,7.91 27.75,7.91 27.75,7.91 26.19,7.87 24.63,7.83 21.95,7.60 19.27,7.37 15.09,7.05 10.91,6.73 8.39,6.38 5.88,6.03 2.48,5.53 -0.91,5.03 -1.50,4.85 -2.09,4.67 -2.62,4.35 -3.15,4.03 -3.58,3.59 -4.02,3.16 -4.34,2.63 -4.66,2.10 -4.85,1.51 -5.03,0.92 -5.07,0.31 -5.11,-0.30 -5.00,-0.90 -4.89,-1.51 -4.63,-2.08 -4.38,-2.64 -4.00,-3.12 -3.62,-3.61 -3.14,-3.99 -2.65,-4.37 -2.09,-4.63 -1.52,-4.88 -0.92,-4.99 -0.31,-5.11 0.30,-5.07 0.91,-5.03 0.91,-5.03 L 0.91,-5.03 Z"></path></g><g transform="translate(46.534745735610954 757.0937581968036) rotate(0 -10.144576229015428 5.339250646850189)" stroke="none"><path fill="#1e1e1e" d="M 4.80,1.92 Q 4.80,1.92 4.26,3.49 3.73,5.06 2.38,7.42 1.04,9.78 -0.45,11.65 -1.95,13.53 -4.50,14.92 -7.04,16.31 -9.45,16.65 -11.87,16.99 -14.08,17.10 -16.29,17.22 -18.29,17.24 -20.28,17.26 -21.34,17.09 -22.39,16.92 -23.33,16.42 -24.27,15.92 -25.00,15.15 -25.74,14.37 -26.19,13.40 -26.63,12.44 -26.75,11.38 -26.86,10.32 -26.63,9.28 -26.41,8.23 -25.86,7.32 -25.31,6.41 -24.49,5.72 -23.68,5.03 -22.69,4.63 -21.70,4.24 -20.64,4.18 -19.57,4.12 -18.54,4.41 -17.52,4.69 -16.63,5.29 -15.75,5.89 -15.11,6.74 -14.46,7.59 -14.12,8.60 -13.78,9.61 -13.78,10.67 -13.78,11.74 -14.12,12.75 -14.46,13.76 -15.11,14.61 -15.75,15.46 -16.64,16.06 -17.52,16.65 -18.55,16.94 -19.57,17.22 -20.64,17.17 -21.70,17.11 -22.69,16.71 -23.68,16.32 -24.49,15.63 -25.31,14.94 -25.86,14.02 -26.41,13.11 -26.63,12.07 -26.86,11.03 -26.75,9.97 -26.63,8.91 -26.18,7.94 -25.74,6.97 -25.00,6.20 -24.27,5.43 -23.33,4.93 -22.39,4.43 -21.33,4.26 -20.28,4.08 -20.28,4.08 -20.28,4.08 -16.72,4.18 -13.15,4.28 -10.99,4.66 -8.84,5.04 -7.51,3.06 -6.18,1.07 -5.49,-0.42 -4.80,-1.92 -4.50,-2.47 -4.20,-3.01 -3.78,-3.47 -3.36,-3.93 -2.84,-4.28 -2.32,-4.62 -1.73,-4.83 -1.14,-5.04 -0.52,-5.11 0.09,-5.17 0.71,-5.08 1.32,-5.00 1.90,-4.77 2.48,-4.53 2.99,-4.17 3.50,-3.81 3.90,-3.33 4.31,-2.86 4.59,-2.30 4.87,-1.74 5.01,-1.13 5.14,-0.53 5.13,0.09 5.12,0.71 4.96,1.32 4.80,1.92 4.80,1.92 L 4.80,1.92 Z"></path></g></svg>